<?xml version="1.0" encoding="UTF-8" standalone="no"?>
<!-- Created with Inkscape (http://www.inkscape.org/) -->

<svg
   xmlns:dc="http://purl.org/dc/elements/1.1/"
   xmlns:cc="http://creativecommons.org/ns#"
   xmlns:rdf="http://www.w3.org/1999/02/22-rdf-syntax-ns#"
   xmlns:svg="http://www.w3.org/2000/svg"
   xmlns="http://www.w3.org/2000/svg"
   xmlns:sodipodi="http://sodipodi.sourceforge.net/DTD/sodipodi-0.dtd"
   xmlns:inkscape="http://www.inkscape.org/namespaces/inkscape"
   width="121.765"
   height="121.765"
   viewBox="0 0 121.765 121.765"
   id="svg8939"
   version="1.1"
   inkscape:version="0.91 r13725"
   sodipodi:docname="send.svg">
  <defs
     id="defs8941" />
  <sodipodi:namedview
     id="base"
     pagecolor="#ffffff"
     bordercolor="#666666"
     borderopacity="1.0"
     inkscape:pageopacity="0.0"
     inkscape:pageshadow="2"
     inkscape:zoom="1.979899"
     inkscape:cx="-47.393934"
     inkscape:cy="35.126778"
     inkscape:document-units="px"
     inkscape:current-layer="g9561"
     showgrid="false"
     inkscape:window-width="1855"
     inkscape:window-height="1056"
     inkscape:window-x="1665"
     inkscape:window-y="24"
     inkscape:window-maximized="1"
     units="px" />
  <metadata
     id="metadata8944">
    <rdf:RDF>
      <cc:Work
         rdf:about="">
        <dc:format>image/svg+xml</dc:format>
        <dc:type
           rdf:resource="http://purl.org/dc/dcmitype/StillImage" />
        <dc:title></dc:title>
      </cc:Work>
    </rdf:RDF>
  </metadata>
  <g
     inkscape:label="Livello 1"
     inkscape:groupmode="layer"
     id="layer1"
     transform="translate(0,-930.59716)">
    <g
       id="g9561"
       style="opacity:0.44900004">
      <path
         inkscape:connector-curvature="0"
         id="path6497"
         style="fill:#7fd2ce;fill-opacity:1;fill-rule:nonzero;stroke:none"
         d="m 122.31107,992.3622 c 0,33.6238 -27.257499,60.8825 -60.882499,60.8825 -33.62375,0 -60.8824997,-27.2587 -60.8824997,-60.8825 0,-33.62375 27.2587497,-60.8825 60.8824997,-60.8825 33.625,0 60.882499,27.25875 60.882499,60.8825" />
      <path
         inkscape:connector-curvature="0"
         id="path6499"
         style="fill:#e8bf9c;fill-opacity:1;fill-rule:nonzero;stroke:none"
         d="m 54.512321,1006.236 14.88375,0 0,-17.5948 -14.88375,0 0,17.5948 z" />
      <path
         inkscape:connector-curvature="0"
         id="path6501"
         style="fill:#e8e7e6;fill-opacity:1;fill-rule:nonzero;stroke:none"
         d="m 61.863571,996.80095 -0.0125,0.006 0.006,-0.0125 0.006,0.006 z" />
      <path
         inkscape:connector-curvature="0"
         id="path6503"
         style="fill:#e8bf9c;fill-opacity:1;fill-rule:nonzero;stroke:none"
         d="m 49.442321,979.97095 c -0.37375,0.0712 -0.75375,-0.015 -1.11625,-0.235 -0.99125,-0.58875 -1.85375,-2.1425 -2.14875,-4.08 -0.39625,-2.6375 0.415,-4.975 1.8275,-5.2275 0.12875,-0.0225 0.2575,-0.03 0.38125,-0.007 l 0.22125,0.0312 c 0.30375,0.0712 0.6025,0.23625 0.885,0.4875 0.8275,0.72125 1.51625,2.1175 1.77,3.80625 0.40125,2.63625 -0.41875,4.975 -1.82,5.225" />
      <path
         inkscape:connector-curvature="0"
         id="path6505"
         style="fill:#e8bf9c;fill-opacity:1;fill-rule:nonzero;stroke:none"
         d="m 77.727321,975.65595 c -0.3325,2.19 -1.3975,3.9 -2.555,4.26125 -0.23625,0.0788 -0.47375,0.1025 -0.71125,0.0538 -1.40375,-0.25 -2.2225,-2.58875 -1.81875,-5.225 0.245,-1.60125 0.87,-2.94375 1.64625,-3.68875 0.28125,-0.27375 0.57625,-0.47125 0.88375,-0.5725 0.245,-0.0787 0.49,-0.10375 0.73375,-0.0562 l 0.05,0.0163 c 1.37375,0.29 2.15875,2.60625 1.77125,5.21125" />
      <path
         inkscape:connector-curvature="0"
         id="path6507"
         style="fill:#453b42;fill-opacity:1;fill-rule:nonzero;stroke:none"
         d="m 61.951071,1020.2222 0,6.4913 -33.59375,0 c 0,0 0,-8.7438 0,-16.7713 0,-8.5912 7.0575,-10.38375 7.0575,-10.38375 l 16.54,-2.71875 0.09,-0.0113 1.74375,-3.65875 0.73125,0 2.515,3.72 0.6825,1.00625 2.91375,6.1663 0.17875,2.1737 1.14125,13.9863" />
      <path
         inkscape:connector-curvature="0"
         id="path6509"
         style="fill:#655763;fill-opacity:1;fill-rule:nonzero;stroke:none"
         d="m 61.951071,1020.2222 -2.35625,-13.9862 -0.34375,-2.02 -4.73875,0.265 -0.38,0.018 0.38,-0.92 2.2275,-5.40005 -0.45375,-0.7675 -1.77375,-3.01375 -0.72375,-1.2275 0.73125,0 2.515,3.72 0.6825,1.00625 2.91375,6.16625 0.17875,2.1738 1.14125,13.9862" />
      <path
         inkscape:connector-curvature="0"
         id="path6511"
         style="fill:#2c2729;fill-opacity:1;fill-rule:nonzero;stroke:none"
         d="m 39.249821,1026.7122 -1.73125,0 0,-15.9425 1.73125,15.9425" />
      <path
         inkscape:connector-curvature="0"
         id="path6513"
         style="fill:#453b42;fill-opacity:1;fill-rule:nonzero;stroke:none"
         d="m 95.542321,1009.9422 c 0,8.0275 0,16.7713 0,16.7713 l -33.59125,0 0,-6.4913 1.14,-13.9862 0.17875,-2.1738 2.91625,-6.16625 3.19625,-4.72625 0.73125,0 1.7425,3.65875 16.63125,2.73 c 0,0 7.055,1.79255 7.055,10.38375" />
      <path
         inkscape:connector-curvature="0"
         id="path6515"
         style="fill:#655763;fill-opacity:1;fill-rule:nonzero;stroke:none"
         d="m 69.396071,1003.591 0.37375,0.9075 -0.37375,-0.018 -4.745,-0.265 -0.34375,2.02 -2.35625,13.9862 1.14,-13.9862 0.17875,-2.1738 2.91625,-6.16625 3.19625,-4.72625 0.73125,0 -0.7175,1.21625 -2.23625,3.7925 2.23625,5.41255" />
      <path
         inkscape:connector-curvature="0"
         id="path6517"
         style="fill:#2c2729;fill-opacity:1;fill-rule:nonzero;stroke:none"
         d="m 86.384821,1026.7122 -1.73125,0 1.73125,-15.9425 0,15.9425" />
      <path
         inkscape:connector-curvature="0"
         id="path6519"
         style="fill:#f5f5f5;fill-opacity:1;fill-rule:nonzero;stroke:none"
         d="m 69.382321,993.1697 -3.19625,4.72625 -2.91625,6.16625 -0.17875,2.1738 -1.14,13.9862 -1.14125,-13.9862 -0.17875,-2.1738 -2.91375,-6.16625 -0.6825,-1.00625 -2.515,-3.72 3.65625,2.935 2.19875,1.755 1.57625,8.3763 1.5775,-8.3763 5.85375,-4.69" />
      <path
         inkscape:connector-curvature="0"
         id="path6521"
         style="fill:#67a89c;fill-opacity:1;fill-rule:nonzero;stroke:none"
         d="m 88.487321,999.5597 c 0,-10e-4 0,-10e-4 0,-10e-4 l -5.13,-0.8425 0.6125,0.1 4.52,0.7425 -0.002,10e-4 m -5.3625,-0.88125 -11.26875,-1.85 -1.7425,-3.65875 -0.7175,0 0,-0.001 0.72125,0 1.76125,3.625 -0.0225,0.0325 0.005,-0.003 -0.001,0.003 0.02,-0.0113 0,0 5.0325,0.84125 5.11875,0.84125 1.09375,0.18125" />
      <path
         inkscape:connector-curvature="0"
         id="path6523"
         style="fill:#c99a73;fill-opacity:1;fill-rule:nonzero;stroke:none"
         d="m 65.727321,996.09845 -7.08,-4.70875 c 1.02125,0.31875 2.08625,0.4875 3.1825,0.4875 2.79625,0 5.3975,-1.09875 7.56375,-2.98375 l -0.005,4.275 0.007,0 0,10e-4 -0.0137,0 -3.655,2.92875" />
      <path
         inkscape:connector-curvature="0"
         id="path6525"
         style="fill:#3c2f31;fill-opacity:1;fill-rule:nonzero;stroke:none"
         d="m 69.839821,1000.4885 -2.675,-2.31005 -0.001,-0.005 2.2325,-3.7875 0.7175,-1.21625 -0.73125,0 0.0137,0 0.7175,0 1.7425,3.65875 11.26875,1.85 0.13125,0.0225 0.10125,0.015 5.13,0.8425 c 0,0 0,0 0,10e-4 l -11.3013,0.64005 -7.34625,0.2888" />
      <path
         inkscape:connector-curvature="0"
         id="path6527"
         style="fill:#594549;fill-opacity:1;fill-rule:nonzero;stroke:none"
         d="m 67.163571,998.17345 -0.29375,-1.28375 -0.002,-10e-4 2.515,-3.71875 0.73125,0 -0.7175,1.21625 -2.2325,3.7875" />
      <path
         inkscape:connector-curvature="0"
         id="path6529"
         style="fill:#d3c1b2;fill-opacity:1;fill-rule:nonzero;stroke:none"
         d="m 66.867321,996.88845 -0.94125,-0.6575 -0.19875,-0.1325 3.655,-2.92875 -2.515,3.71875" />
      <path
         inkscape:connector-curvature="0"
         id="path6531"
         style="fill:#f3cea7;fill-opacity:1;fill-rule:nonzero;stroke:none"
         d="m 75.493571,974.0247 c 0,1.63125 -0.16625,3.21625 -0.48875,4.71375 -1.575,7.57375 -6.8825,13.13875 -13.175,13.13875 -6.3425,0 -11.67875,-5.65875 -13.2175,-13.3175 -0.2875,-1.4525 -0.4475,-2.96625 -0.4475,-4.535 0,-1.65625 0.17375,-3.2575 0.50375,-4.78 0.0225,-0.14875 0.0575,-0.29875 0.10125,-0.4475 0.0362,0.15625 0.0787,0.3225 0.1225,0.47875 0.3025,0.07 0.60375,0.235 0.885,0.48625 -0.42625,-1.67875 0.82625,-4.67625 1.805,-6.1375 1.345,-2.055 3.595,-2.4475 5.8475,-2.9425 2.96125,-0.49375 5.6575,-0.885 8.62875,-0.885 2.06375,0 2.87625,0.29625 4.58,1.475 -0.72625,2.6275 1.41875,6.65375 3.48125,8.6075 0.28125,-0.275 0.57625,-0.47125 0.885,-0.5725 0.0725,0.32125 0.13625,0.64375 0.18,0.97375 0.2075,1.2075 0.30875,2.455 0.30875,3.74375" />
      <path
         inkscape:connector-curvature="0"
         id="path6533"
         style="fill:#a36964;fill-opacity:1;fill-rule:nonzero;stroke:none"
         d="m 75.788571,970.44595 -0.0475,-0.0188 c -0.24625,-0.0437 -0.49,-0.0187 -0.7375,0.055 -0.30625,0.105 -0.6,0.30125 -0.8825,0.5775 -2.0625,-1.9575 -4.1325,-5.58375 -3.68875,-8.5625 -1.70625,-1.17875 -2.30875,-1.52625 -4.375,-1.52625 -2.97125,0 -5.66625,0.39125 -8.62875,0.88875 -2.2525,0.4975 -4.49875,0.88375 -5.85,2.94 -0.975,1.46 -2.2275,4.46125 -1.80375,6.13625 -0.27625,-0.245 -1.0175,-0.435 -1.32,-0.50875 -0.0425,-0.15375 0.1175,-0.80375 0.0563,-1.09875 -0.15875,-0.7725 -0.2825,-0.97625 -0.44125,-1.28875 -1.81,-5.695 4.1725,-10.9125 7.395,-12.21625 1.81,-0.805 4.0525,-1.15625 5.90625,-1.30375 4.065,-0.3275 8.5925,1.38 10.20125,6.52 1.79375,0.12375 2.55375,0.9375 3.1275,1.93625 0.545,1.05 0.805,2.04625 0.99625,2.95375 0.20375,1.2675 0.4075,2.7425 0.0925,4.51625" />
      <path
         inkscape:connector-curvature="0"
         id="path6535"
         style="fill:#d2be92;fill-opacity:1;fill-rule:nonzero;stroke:none"
         d="m 59.121071,1008.511 c 0,0.79 -0.6425,1.4312 -1.4325,1.4312 -0.79,0 -1.4325,-0.6412 -1.4325,-1.4312 0,-0.7913 0.6425,-1.4325 1.4325,-1.4325 0.79,0 1.4325,0.6412 1.4325,1.4325" />
      <path
         inkscape:connector-curvature="0"
         id="path6537"
         style="fill:#ffffff;fill-opacity:1;fill-rule:nonzero;stroke:none"
         d="m 57.688571,1008.0497 c 0,0.2538 -0.205,0.4613 -0.46,0.4613 -0.25375,0 -0.46125,-0.2075 -0.46125,-0.4613 0,-0.2537 0.2075,-0.4612 0.46125,-0.4612 0.255,0 0.46,0.2075 0.46,0.4612" />
      <path
         inkscape:connector-curvature="0"
         id="path6539"
         style="fill:#d2be92;fill-opacity:1;fill-rule:nonzero;stroke:none"
         d="m 67.611071,1008.511 c 0,0.79 -0.6425,1.4312 -1.43375,1.4312 -0.79,0 -1.43125,-0.6412 -1.43125,-1.4312 0,-0.7913 0.64125,-1.4325 1.43125,-1.4325 0.79125,0 1.43375,0.6412 1.43375,1.4325" />
      <path
         inkscape:connector-curvature="0"
         id="path6541"
         style="fill:#ffffff;fill-opacity:1;fill-rule:nonzero;stroke:none"
         d="m 66.177321,1008.0497 c 0,0.2538 -0.205,0.4613 -0.46,0.4613 -0.25375,0 -0.45875,-0.2075 -0.45875,-0.4613 0,-0.2537 0.205,-0.4612 0.45875,-0.4612 0.255,0 0.46,0.2075 0.46,0.4612" />
      <path
         inkscape:connector-curvature="0"
         id="path6545"
         style="fill:#b5947b;fill-opacity:1;fill-rule:nonzero;stroke:none"
         d="m 69.396071,993.16345 -0.002,0 0,-4.27125 c 0.001,0 0.001,-10e-4 0.002,-10e-4 l 0,4.2725" />
      <path
         inkscape:connector-curvature="0"
         id="path6547"
         style="fill:#b5947b;fill-opacity:1;fill-rule:nonzero;stroke:none"
         d="m 74.709821,979.99595 c -0.002,0 -0.004,0 -0.005,0 0,-0.002 0.001,-0.005 0.002,-0.007 0.15,0 0.31125,-0.025 0.4625,-0.0763 0.90375,-0.28125 1.74875,-1.38125 2.2375,-2.8875 -0.48625,1.51 -1.3325,2.61125 -2.235,2.8925 -0.15375,0.0513 -0.30875,0.0788 -0.4625,0.0788 m 1.14,-9.57625 -0.055,-0.007 c 0,0 0,0 0,0 0.0187,0.002 0.0362,0.004 0.055,0.007" />
      <path
         inkscape:connector-curvature="0"
         id="path6549"
         style="fill:#362f34;fill-opacity:1;fill-rule:nonzero;stroke:none"
         d="m 61.951071,1026.7135 -22.70125,0 0,-10e-4 22.70125,0 0,10e-4 m -24.4325,0 -9.16125,0 c 0,0 0,0 0,-10e-4 l 9.16125,0 0,10e-4" />
      <path
         inkscape:connector-curvature="0"
         id="path6551"
         style="fill:#3b646b;fill-opacity:1;fill-rule:nonzero;stroke:none"
         d="m 37.518571,1026.716 1.73145,0 0,0 -1.73145,0 0,0 z" />
      <path
         inkscape:connector-curvature="0"
         id="path6553"
         style="fill:#231f20;fill-opacity:1;fill-rule:nonzero;stroke:none"
         d="m 37.518571,1026.7135 1.73145,0 0,-10e-4 -1.73145,0 0,10e-4 z" />
      <path
         inkscape:connector-curvature="0"
         id="path6555"
         style="fill:#362f34;fill-opacity:1;fill-rule:nonzero;stroke:none"
         d="m 95.542321,1026.7135 -9.1575,0 0,-10e-4 9.15875,0 c -0.001,10e-4 -0.001,10e-4 -0.001,10e-4 m -10.88875,0 -22.7025,0 0,-10e-4 22.7025,0 0,10e-4" />
      <path
         inkscape:connector-curvature="0"
         id="path6557"
         style="fill:#3b646b;fill-opacity:1;fill-rule:nonzero;stroke:none"
         d="m 84.653571,1026.716 1.73145,0 0,0 -1.73145,0 0,0 z" />
      <path
         inkscape:connector-curvature="0"
         id="path6559"
         style="fill:#231f20;fill-opacity:1;fill-rule:nonzero;stroke:none"
         d="m 84.653571,1026.7135 1.73145,0 0,-10e-4 -1.73145,0 0,10e-4 z" />
      <path
         inkscape:connector-curvature="0"
         id="path6561"
         style="fill:#4f807e;fill-opacity:1;fill-rule:nonzero;stroke:none"
         d="m 83.969821,998.81595 -0.6125,-0.1 -0.2325,-0.0375 -1.09375,-0.18125 1.2275,0.2025 0.71125,0.11625 m -12.11375,-1.99 0.0225,-0.0325 0.001,10e-4 -0.0188,0.0288 -0.005,0.002 m 0.0238,-0.0113 0,0 0,0" />
      <path
         inkscape:connector-curvature="0"
         id="path6563"
         style="fill:#302426;fill-opacity:1;fill-rule:nonzero;stroke:none"
         d="m 83.357321,998.71595 -0.10125,-0.015 -0.13125,-0.0225 0.2325,0.0375" />
      <path
         inkscape:connector-curvature="0"
         id="path6565"
         style="fill:#be9e86;fill-opacity:1;fill-rule:nonzero;stroke:none"
         d="m 69.393571,988.8922 0,-0.0175 c 1.76125,-1.525 3.23375,-3.57125 4.28875,-5.97125 -1.055,2.40375 -2.52625,4.455 -4.28625,5.9875 -0.001,0 -0.001,10e-4 -0.002,10e-4 m 4.29625,-6.00375 c 0.001,-0.004 0.002,-0.007 0.004,-0.0113 -0.001,0.004 -0.002,0.008 -0.004,0.0113 m 0.925,-2.57 c 0.0312,-0.11 0.0625,-0.22 0.0913,-0.33 0.001,0 0.001,0 0.001,0 -0.001,0.002 -0.002,0.005 -0.002,0.007 -0.0288,0.1075 -0.06,0.21625 -0.09,0.3225" />
      <path
         inkscape:connector-curvature="0"
         id="path6567"
         style="fill:#7f504e;fill-opacity:1;fill-rule:nonzero;stroke:none"
         d="m 75.794821,970.4122 0,0 c 0.002,-0.015 0.005,-0.0312 0.007,-0.0462 -0.002,0.015 -0.005,0.0312 -0.007,0.0462 0,0 0,0 0,0 m 0.1125,-2.8575 c -0.05,-0.58 -0.1325,-1.12125 -0.21375,-1.62875 -0.015,-0.0788 -0.0325,-0.1575 -0.05,-0.23625 0.0187,0.08 0.0362,0.16 0.0525,0.24 0.0812,0.50625 0.1625,1.04625 0.21125,1.625 m -0.63625,-3.23125 c -0.14875,-0.43625 -0.335,-0.88625 -0.57625,-1.3475 -0.13,-0.2175 -0.26,-0.42375 -0.40625,-0.62125 0.1525,0.195 0.28625,0.40375 0.41125,0.62125 0.23875,0.46125 0.42375,0.91 0.57125,1.3475" />
    </g>
  </g>
</svg>
