<?xml version="1.0" encoding="UTF-8" standalone="no"?>
<!-- Created with Inkscape (http://www.inkscape.org/) -->

<svg
   xmlns:dc="http://purl.org/dc/elements/1.1/"
   xmlns:cc="http://creativecommons.org/ns#"
   xmlns:rdf="http://www.w3.org/1999/02/22-rdf-syntax-ns#"
   xmlns:svg="http://www.w3.org/2000/svg"
   xmlns="http://www.w3.org/2000/svg"
   xmlns:sodipodi="http://sodipodi.sourceforge.net/DTD/sodipodi-0.dtd"
   xmlns:inkscape="http://www.inkscape.org/namespaces/inkscape"
   width="618.27197"
   height="618.27197"
   viewBox="0 0 618.27198 618.27198"
   id="svg10352"
   version="1.1"
   inkscape:version="0.91 r13725"
   sodipodi:docname="healt.svg">
  <defs
     id="defs10354" />
  <sodipodi:namedview
     id="base"
     pagecolor="#ffffff"
     bordercolor="#666666"
     borderopacity="1.0"
     inkscape:pageopacity="0.0"
     inkscape:pageshadow="2"
     inkscape:zoom="0.35"
     inkscape:cx="-297.85714"
     inkscape:cy="520"
     inkscape:document-units="px"
     inkscape:current-layer="layer1"
     showgrid="false"
     units="px"
     inkscape:window-width="1855"
     inkscape:window-height="1056"
     inkscape:window-x="1665"
     inkscape:window-y="24"
     inkscape:window-maximized="1" />
  <metadata
     id="metadata10357">
    <rdf:RDF>
      <cc:Work
         rdf:about="">
        <dc:format>image/svg+xml</dc:format>
        <dc:type
           rdf:resource="http://purl.org/dc/dcmitype/StillImage" />
        <dc:title></dc:title>
      </cc:Work>
    </rdf:RDF>
  </metadata>
  <g
     inkscape:label="Livello 1"
     inkscape:groupmode="layer"
     id="layer1"
     transform="translate(0,-434.09016)">
    <g
       transform="matrix(0.14998114,0,0,-0.14998114,-5966.5541,4138.4609)"
       id="g9834"
       style="opacity:0.433">
      <g
         transform="scale(2.69407,2.69407)"
         id="g2450"
         style="">
        <path
           inkscape:connector-curvature="0"
           id="path2452"
           style="fill:#c8e88f;fill-opacity:1;fill-rule:nonzero;stroke:none"
           d="m 16300,8399.31 c 0,-422.04 -342.1,-764.2 -764.2,-764.2 -422,0 -764.1,342.16 -764.1,764.2 0,422.04 342.1,764.16 764.1,764.16 422.1,0 764.2,-342.12 764.2,-764.16" />
      </g>
      <g
         transform="scale(2.63725,2.63725)"
         id="g2454"
         style="">
        <path
           inkscape:connector-curvature="0"
           id="path2456"
           style="fill:#3a464d;fill-opacity:1;fill-rule:nonzero;stroke:none"
           d="m 16252.7,8095.66 -764.3,0 c -26,0 -47.3,21.31 -47.3,47.33 l 0,477.77 c 0,26.01 21.3,47.32 47.3,47.32 l 764.3,0 c 26,0 47.3,-21.31 47.3,-47.32 l 0,-477.77 c 0,-26.02 -21.3,-47.33 -47.3,-47.33" />
      </g>
      <g
         transform="scale(2.63265,2.63265)"
         id="g2458"
         style="">
        <path
           inkscape:connector-curvature="0"
           id="path2460"
           style="fill:#dddade;fill-opacity:1;fill-rule:nonzero;stroke:none"
           d="m 16265.6,8131.58 -734.7,0 c -18.9,0 -34.4,15.46 -34.4,34.37 l 0,456.27 c 0,18.92 15.5,34.38 34.4,34.38 l 734.7,0 c 18.9,0 34.4,-15.46 34.4,-34.38 l 0,-456.27 c 0,-18.91 -15.5,-34.37 -34.4,-34.37" />
      </g>
      <g
         transform="scale(2.60173,2.60173)"
         id="g2462"
         style="">
        <path
           inkscape:connector-curvature="0"
           id="path2464"
           style="fill:#3a464d;fill-opacity:1;fill-rule:nonzero;stroke:none"
           d="m 15902.5,9017.5 0.1,0 c 0,37.59 14.5,69.84 35.9,87.13 1.5,1.2 3.1,2.39 4.7,3.46 1,0.7 2,1.39 3.1,2 0.5,0.35 1.1,0.66 1.6,0.96 1.1,0.58 2.2,1.16 3.3,1.69 1.1,0.54 2.3,1 3.4,1.46 6.2,2.46 12.8,3.77 19.5,3.77 l 229.7,0 c 6.8,0 13.3,-1.31 19.5,-3.77 1.1,-0.46 2.3,-0.92 3.4,-1.46 1.1,-0.53 2.2,-1.07 3.3,-1.69 0.5,-0.3 1,-0.61 1.6,-0.92 1,-0.61 2.1,-1.31 3.1,-2 1.6,-1.04 3.1,-2.3 4.6,-3.5 21.5,-17.29 35.9,-49.54 35.9,-87.13 l 0.1,0 0,-790.01 24.7,0 0,825.37 c 0,55.5 -31.8,100.51 -71.3,100.51 l -276.7,0 c -39.5,0 -71.4,-45.01 -71.4,-100.51 l 0,-825.37 21.9,0 0,790.01" />
      </g>
      <g
         transform="scale(2.59779,2.59779)"
         id="g2466"
         style="">
        <path
           inkscape:connector-curvature="0"
           id="path2468"
           style="fill:#dddade;fill-opacity:1;fill-rule:nonzero;stroke:none"
           d="m 16264,9118.55 c -1.5,1.2 -3.1,2.35 -4.6,3.39 -1.1,0.7 -2.1,1.39 -3.2,2 -0.5,0.35 -1.1,0.66 -1.6,0.93 -1.1,0.61 -2.2,1.15 -3.3,1.69 -1.1,0.54 -2.3,1 -3.4,1.46 -6.2,2.47 -12.8,3.78 -19.6,3.78 l -229.9,0 c -6.8,0 -13.4,-1.31 -19.6,-3.78 -1.2,-0.46 -2.3,-0.92 -3.4,-1.46 -1.1,-0.54 -2.2,-1.08 -3.3,-1.69 -0.5,-0.31 -1.1,-0.62 -1.6,-0.93 -1.1,-0.61 -2.1,-1.3 -3.2,-2 -1.5,-1.04 -3.2,-2.19 -4.7,-3.39 -21.4,-17.28 -36,-49.81 -36,-87.15 l 0,-791.44 373.4,0 0,791.44 c 0,37.34 -14.5,69.87 -36,87.15" />
      </g>
      <g
         transform="scale(2.56512,2.56512)"
         id="g2470"
         style="">
        <path
           inkscape:connector-curvature="0"
           id="path2472"
           style="fill:#f58719;fill-opacity:1;fill-rule:nonzero;stroke:none"
           d="m 16293.1,8875.99 -117.1,0 c -3.8,0 -6.9,3.04 -6.9,6.82 l 0,98.2 c 0,3.79 3.1,6.86 6.9,6.86 l 117.1,0 c 3.8,0 6.9,-3.07 6.9,-6.86 l 0,-98.2 c 0,-3.78 -3.1,-6.82 -6.9,-6.82" />
      </g>
      <g
         transform="scale(2.56512,2.56512)"
         id="g2474"
         style="">
        <path
           inkscape:connector-curvature="0"
           id="path2476"
           style="fill:#f58719;fill-opacity:1;fill-rule:nonzero;stroke:none"
           d="m 16293.1,8718.02 -117.1,0 c -3.8,0 -6.9,3.08 -6.9,6.83 l 0,98.24 c 0,3.74 3.1,6.82 6.9,6.82 l 117.1,0 c 3.8,0 6.9,-3.08 6.9,-6.82 l 0,-98.24 c 0,-3.75 -3.1,-6.83 -6.9,-6.83" />
      </g>
      <g
         transform="scale(2.59204,2.59204)"
         id="g2478"
         style="">
        <path
           inkscape:connector-curvature="0"
           id="path2480"
           style="fill:#f58719;fill-opacity:1;fill-rule:nonzero;stroke:none"
           d="m 16293.2,8783.81 -116,0 c -3.7,0 -6.7,3.01 -6.7,6.75 l 0,97.18 c 0,3.74 3,6.79 6.7,6.79 l 116,0 c 3.8,0 6.8,-3.05 6.8,-6.79 l 0,-97.18 c 0,-3.74 -3,-6.75 -6.8,-6.75" />
      </g>
      <g
         transform="scale(2.59204,2.59204)"
         id="g2482"
         style="">
        <path
           inkscape:connector-curvature="0"
           id="path2484"
           style="fill:#f58719;fill-opacity:1;fill-rule:nonzero;stroke:none"
           d="m 16293.2,8627.48 -116,0 c -3.7,0 -6.7,3.05 -6.7,6.75 l 0,97.22 c 0,3.71 3,6.76 6.7,6.76 l 116,0 c 3.8,0 6.8,-3.05 6.8,-6.76 l 0,-97.22 c 0,-3.7 -3,-6.75 -6.8,-6.75" />
      </g>
      <g
         transform="scale(2.52898,2.52898)"
         id="g2486"
         style="">
        <path
           inkscape:connector-curvature="0"
           id="path2488"
           style="fill:#f58719;fill-opacity:1;fill-rule:nonzero;stroke:none"
           d="m 16293,8701.21 -118.8,0 c -3.9,0 -7,3.12 -7,6.92 l 0,99.61 c 0,3.83 3.1,6.95 7,6.95 l 118.8,0 c 3.9,0 7,-3.12 7,-6.95 l 0,-99.61 c 0,-3.8 -3.1,-6.92 -7,-6.92" />
      </g>
      <g
         transform="scale(2.62815,2.62815)"
         id="g2490"
         style="">
        <path
           inkscape:connector-curvature="0"
           id="path2492"
           style="fill:#f58719;fill-opacity:1;fill-rule:nonzero;stroke:none"
           d="m 16293.3,8372.89 -114.4,0 c -3.6,0 -6.6,3.01 -6.6,6.66 l 0,95.85 c 0,3.69 3,6.7 6.6,6.7 l 114.4,0 c 3.7,0 6.7,-3.01 6.7,-6.7 l 0,-95.85 c 0,-3.65 -3,-6.66 -6.7,-6.66" />
      </g>
      <g
         transform="scale(2.52848,2.52848)"
         id="g2494"
         style="">
        <path
           inkscape:connector-curvature="0"
           id="path2496"
           style="fill:#f58719;fill-opacity:1;fill-rule:nonzero;stroke:none"
           d="m 16293.1,8844.37 -118.9,0 c -3.8,0 -7,3.13 -7,6.92 l 0,99.67 c 0,3.79 3.2,6.92 7,6.92 l 118.9,0 c 3.8,0 6.9,-3.13 6.9,-6.92 l 0,-99.67 c 0,-3.79 -3.1,-6.92 -6.9,-6.92" />
      </g>
      <g
         transform="scale(2.62815,2.62815)"
         id="g2498"
         style="">
        <path
           inkscape:connector-curvature="0"
           id="path2500"
           style="fill:#f58719;fill-opacity:1;fill-rule:nonzero;stroke:none"
           d="m 16293.3,8508.96 -114.4,0 c -3.6,0 -6.6,3.01 -6.6,6.66 l 0,95.88 c 0,3.66 3,6.66 6.6,6.66 l 114.4,0 c 3.7,0 6.7,-3 6.7,-6.66 l 0,-95.88 c 0,-3.65 -3,-6.66 -6.7,-6.66" />
      </g>
      <g
         transform="scale(2.59345,2.59345)"
         id="g2502"
         style="">
        <path
           inkscape:connector-curvature="0"
           id="path2504"
           style="fill:#3a464d;fill-opacity:1;fill-rule:nonzero;stroke:none"
           d="m 16293.3,8243.49 -309.4,0 c -3.7,0 -6.8,3 -6.8,6.74 l 0,211.27 c 0,17.85 14.6,32.46 32.5,32.46 l 257.9,0 c 17.9,0 32.5,-14.61 32.5,-32.46 l 0,-211.27 c 0,-3.74 -3,-6.74 -6.7,-6.74" />
      </g>
      <g
         transform="scale(2.59149,2.59149)"
         id="g2506"
         style="">
        <path
           inkscape:connector-curvature="0"
           id="path2508"
           style="fill:#cb242b;fill-opacity:1;fill-rule:nonzero;stroke:none"
           d="m 16300,9176.3 c 0,-81.57 -66.1,-147.71 -147.7,-147.71 -81.6,0 -147.7,66.14 -147.7,147.71 0,81.58 66.1,147.72 147.7,147.72 81.6,0 147.7,-66.14 147.7,-147.72" />
      </g>
      <g
         transform="scale(2.57286,2.57286)"
         id="g2510"
         style="">
        <path
           inkscape:connector-curvature="0"
           id="path2512"
           style="fill:#f1fbfe;fill-opacity:1;fill-rule:nonzero;stroke:none"
           d="m 16300,9141.7 -51.5,0 0,200.98 51.5,0 0,-200.98" />
      </g>
      <g
         transform="scale(2.58429,2.58429)"
         id="g2514"
         style="">
        <path
           inkscape:connector-curvature="0"
           id="path2516"
           style="fill:#f1fbfe;fill-opacity:1;fill-rule:nonzero;stroke:none"
           d="m 16300,9226.89 0,-51.19 -200.1,0 0,51.19 200.1,0" />
      </g>
    </g>
  </g>
</svg>
