<?xml version="1.0" encoding="UTF-8" standalone="no"?>
<!-- Created with Inkscape (http://www.inkscape.org/) -->

<svg
   xmlns:dc="http://purl.org/dc/elements/1.1/"
   xmlns:cc="http://creativecommons.org/ns#"
   xmlns:rdf="http://www.w3.org/1999/02/22-rdf-syntax-ns#"
   xmlns:svg="http://www.w3.org/2000/svg"
   xmlns="http://www.w3.org/2000/svg"
   xmlns:sodipodi="http://sodipodi.sourceforge.net/DTD/sodipodi-0.dtd"
   xmlns:inkscape="http://www.inkscape.org/namespaces/inkscape"
   width="514.68201"
   height="514.68201"
   viewBox="0 0 514.68201 514.68201"
   id="svg9245"
   version="1.1"
   inkscape:version="0.91 r13725"
   sodipodi:docname="iot.svg">
  <defs
     id="defs9247" />
  <sodipodi:namedview
     id="base"
     pagecolor="#ffffff"
     bordercolor="#666666"
     borderopacity="1.0"
     inkscape:pageopacity="0.0"
     inkscape:pageshadow="2"
     inkscape:zoom="0.7"
     inkscape:cx="468.72935"
     inkscape:cy="358.37559"
     inkscape:document-units="px"
     inkscape:current-layer="g3320"
     showgrid="false"
     units="px"
     inkscape:window-width="1855"
     inkscape:window-height="1056"
     inkscape:window-x="1665"
     inkscape:window-y="24"
     inkscape:window-maximized="1" />
  <metadata
     id="metadata9250">
    <rdf:RDF>
      <cc:Work
         rdf:about="">
        <dc:format>image/svg+xml</dc:format>
        <dc:type
           rdf:resource="http://purl.org/dc/dcmitype/StillImage" />
        <dc:title></dc:title>
      </cc:Work>
    </rdf:RDF>
  </metadata>
  <g
     inkscape:label="Livello 1"
     inkscape:groupmode="layer"
     id="layer1"
     transform="translate(0,-537.68023)">
    <g
       id="g3320"
       transform="matrix(0.33675875,0,0,-0.33675875,-4977.5477,2420.0635)"
       style="opacity:0.804">
      <g
         transform="matrix(0.3711856,0,0,0.3711856,8954.0711,-10726.434)"
         id="g10083"
         style="opacity:0.533">
        <g
           transform="scale(2.69608,2.69608)"
           id="g582"
           style="">
          <path
             inkscape:connector-curvature="0"
             id="path584"
             style="fill:#7ac02b;fill-opacity:1;fill-rule:nonzero;stroke:none"
             d="m 7348.94,15536.4 c 0,-421.7 -341.87,-763.6 -763.59,-763.6 -421.73,0 -763.59,341.9 -763.59,763.6 0,421.7 341.86,763.6 763.59,763.6 421.72,0 763.59,-341.9 763.59,-763.6" />
        </g>
        <g
           transform="scale(2.66946,2.66946)"
           id="g586"
           style="">
          <path
             inkscape:connector-curvature="0"
             id="path588"
             style="fill:#373e4b;fill-opacity:1;fill-rule:nonzero;stroke:none"
             d="m 6210.17,15486 c -17.08,16.4 -11.61,38.3 0.42,50.5 12.02,12.1 36.26,17.9 51.13,2.2 17.72,-18.6 12.85,-40.9 0.82,-53.1 -12.02,-12.1 -34.31,-16.9 -52.37,0.4 z m 770.12,669.4 -162.95,-165.1 c -8.62,-8.7 -22.7,-8.8 -31.47,-0.2 l -69.9,69 c -8.73,8.7 -8.84,22.7 -0.19,31.5 l 161.12,163.2 c -92.08,46.2 -207.12,30.5 -283.43,-46.8 -65.22,-66.1 -85.11,-160 -59.86,-243 l -390,-395.1 c -37.13,-37.6 -36.75,-98.1 0.86,-135.2 l 18.65,-18.5 c 37.61,-37.1 98.19,-36.7 135.27,0.9 l 384.73,389.8 c 87.17,-32 188.76,-12.6 258.21,57.7 78.45,79.5 91.3,199.2 38.96,291.8" />
        </g>
        <g
           transform="scale(2.62944,2.62944)"
           id="g590"
           style="">
          <path
             inkscape:connector-curvature="0"
             id="path592"
             style="fill:#ffffff;fill-opacity:1;fill-rule:nonzero;stroke:none"
             d="m 6868.07,16181.6 c -8.78,-8.9 -23.08,-9 -31.95,-0.2 l -77.69,76.7 c -8.86,8.7 -8.98,23 -0.19,31.9 l 0.99,1 c 8.78,8.9 23.08,9 31.94,0.2 l 77.7,-76.6 c 8.86,-8.8 8.97,-23.1 0.19,-32 l -0.99,-1" />
        </g>
        <g
           transform="scale(2.60068,2.60068)"
           id="g594"
           style="">
          <path
             inkscape:connector-curvature="0"
             id="path596"
             style="fill:#f2574f;fill-opacity:1;fill-rule:nonzero;stroke:none"
             d="m 6379.84,15902.2 c -10.35,10.2 -11.23,29.2 0.08,40.6 11.3,11.5 30.53,11.1 40.87,0.9 10.34,-10.2 11.3,-29.8 0.04,-41.2 -11.31,-11.5 -30.65,-10.5 -40.99,-0.3 z m 368.98,370.3 -5.92,5.8 c -21.92,21.7 -59.18,19.6 -83.21,-4.8 l -304.61,-308.6 c -24,-24.3 -25.69,-61.6 -3.73,-83.2 l 5.88,-5.8 c 21.95,-21.7 59.21,-19.6 83.21,4.8 l 304.65,308.6 c 23.99,24.3 25.65,61.6 3.73,83.2" />
        </g>
        <g
           transform="scale(2.57681,2.57681)"
           id="g598"
           style="">
          <path
             inkscape:connector-curvature="0"
             id="path600"
             style="fill:#373e4b;fill-opacity:1;fill-rule:nonzero;stroke:none"
             d="m 6737.17,15745.2 c -9.13,9 -9.2,23.7 -0.24,32.8 9,9.1 23.67,9.2 32.79,0.2 9.08,-9 9.2,-23.7 0.2,-32.8 -8.97,-9.1 -23.67,-9.2 -32.75,-0.2 z m 518.54,329.9 26.93,103.2 c 3.23,12.3 -0.38,25.4 -9.46,34.4 l -6.56,6.5 -83.48,-84.6 c -6.71,-6.8 -17.69,-6.9 -24.49,-0.1 l -32.17,31.7 c -6.83,6.7 -6.9,17.7 -0.19,24.5 l 83.47,84.6 -12.49,12.3 c -9.08,9 -22.24,12.4 -34.54,9 l -102.84,-28.3 c -12.3,-3.3 -21.85,-13 -25.07,-25.4 l -26.93,-103.2 c -0.51,-1.9 -0.86,-3.9 -1.01,-5.9 -4.19,-2.7 -8.15,-5.9 -11.8,-9.6 l -313.25,-317.4 c -27.79,-28.1 -27.48,-73.5 0.65,-101.2 l 13.94,-13.8 c 28.13,-27.8 73.46,-27.5 101.25,0.6 l 313.25,317.4 c 3.22,3.2 6.02,6.7 8.46,10.3 2.83,0.1 5.63,0.5 8.42,1.3 l 102.84,28.3 c 12.3,3.3 21.85,13 25.07,25.4" />
        </g>
        <g
           transform="scale(2.54375,2.54375)"
           id="g602"
           style="">
          <path
             inkscape:connector-curvature="0"
             id="path604"
             style="fill:#f2574f;fill-opacity:1;fill-rule:nonzero;stroke:none"
             d="m 6824.72,15949.8 c -9.24,9.1 -9.32,24 -0.24,33.2 9.12,9.2 23.98,9.3 33.22,0.2 9.2,-9.1 9.32,-23.9 0.2,-33.2 -9.08,-9.2 -23.98,-9.3 -33.18,-0.2 z m 330.06,334.2 c -16.19,16 -42.3,15.8 -58.3,-0.4 l -286.42,-290.1 c -16,-16.2 -15.81,-42.3 0.39,-58.3 16.19,-16 42.3,-15.8 58.26,0.4 l 286.43,290.1 c 16,16.2 15.84,42.3 -0.36,58.3" />
        </g>
      </g>
    </g>
  </g>
</svg>
