<?xml version="1.0" encoding="UTF-8" standalone="no"?>
<!-- Created with Inkscape (http://www.inkscape.org/) -->

<svg
   xmlns:dc="http://purl.org/dc/elements/1.1/"
   xmlns:cc="http://creativecommons.org/ns#"
   xmlns:rdf="http://www.w3.org/1999/02/22-rdf-syntax-ns#"
   xmlns:svg="http://www.w3.org/2000/svg"
   xmlns="http://www.w3.org/2000/svg"
   xmlns:sodipodi="http://sodipodi.sourceforge.net/DTD/sodipodi-0.dtd"
   xmlns:inkscape="http://www.inkscape.org/namespaces/inkscape"
   width="121.765"
   height="121.765"
   viewBox="0 0 121.765 121.765"
   id="svg8939"
   version="1.1"
   inkscape:version="0.91 r13725"
   sodipodi:docname="legal.svg">
  <defs
     id="defs8941" />
  <sodipodi:namedview
     id="base"
     pagecolor="#ffffff"
     bordercolor="#666666"
     borderopacity="1.0"
     inkscape:pageopacity="0.0"
     inkscape:pageshadow="2"
     inkscape:zoom="1.979899"
     inkscape:cx="-47.393934"
     inkscape:cy="35.126778"
     inkscape:document-units="px"
     inkscape:current-layer="layer1"
     showgrid="false"
     inkscape:window-width="1855"
     inkscape:window-height="1056"
     inkscape:window-x="1665"
     inkscape:window-y="24"
     inkscape:window-maximized="1"
     units="px" />
  <metadata
     id="metadata8944">
    <rdf:RDF>
      <cc:Work
         rdf:about="">
        <dc:format>image/svg+xml</dc:format>
        <dc:type
           rdf:resource="http://purl.org/dc/dcmitype/StillImage" />
        <dc:title></dc:title>
      </cc:Work>
    </rdf:RDF>
  </metadata>
  <g
     inkscape:label="Livello 1"
     inkscape:groupmode="layer"
     id="layer1"
     transform="translate(0,-930.59716)">
    <path
       d="m 120.98658,992.25918 c 0,33.62262 -27.258131,60.88142 -60.882629,60.88142 -33.624125,0 -60.88237492,-27.2588 -60.88237492,-60.88142 0,-33.626 27.25824992,-60.88362 60.88237492,-60.88362 33.624498,0 60.882629,27.25762 60.882629,60.88362"
       style="fill:#adda1a;fill-opacity:1;fill-rule:nonzero;stroke:none;opacity:0.435"
       id="path7021"
       inkscape:connector-curvature="0" />
    <path
       d="m 39.160576,989.28168 c -0.5825,0.585 -1.527875,0.585 -2.111875,0 l -12.57275,-12.57375 c -0.583,-0.5825 -0.583,-1.52637 0,-2.10987 l 22.618125,-22.61863 c 0.582625,-0.5825 1.526875,-0.584 2.110875,0 l 12.57325,12.57613 c 0.583,0.5825 0.583,1.52637 0,2.10987 l -22.617625,22.61625"
       style="fill:#845551;fill-opacity:1;fill-rule:nonzero;stroke:none;opacity:0.435"
       id="path7023"
       inkscape:connector-curvature="0" />
    <path
       d="m 59.253326,970.86181 c -0.194875,0.19375 -0.50975,0.19375 -0.703125,0 L 42.897826,955.20943 c -0.19475,-0.19537 -0.193375,-0.50887 0,-0.70362 l 2.351125,-2.3525 c 0.19525,-0.19388 0.50975,-0.19388 0.703625,0 l 15.651875,15.65225 c 0.19525,0.19487 0.19525,0.50975 0,0.70362 l -2.351125,2.35263"
       style="fill:#a36964;fill-opacity:1;fill-rule:nonzero;stroke:none;opacity:0.435"
       id="path7025"
       inkscape:connector-curvature="0" />
    <path
       d="m 55.325076,974.78656 c -0.193875,0.19625 -0.50825,0.19625 -0.702625,0 L 38.969576,959.13568 c -0.19425,-0.19287 -0.19425,-0.50787 0,-0.70412 l 2.352125,-2.34963 c 0.19475,-0.19625 0.50925,-0.19625 0.704625,0 l 15.65175,15.65088 c 0.193875,0.19387 0.193875,0.51025 0,0.70262 l -2.353,2.35113"
       style="fill:#a36964;fill-opacity:1;fill-rule:nonzero;stroke:none;opacity:0.435"
       id="path7027"
       inkscape:connector-curvature="0" />
    <path
       d="m 45.052576,985.06043 c -0.19375,0.19488 -0.50825,0.19488 -0.703125,0 l -15.65225,-15.65137 c -0.194875,-0.19625 -0.193375,-0.50975 0,-0.7035 l 2.352,-2.35263 c 0.194375,-0.19387 0.50875,-0.19475 0.702625,0 l 15.653375,15.65288 c 0.19475,0.19337 0.19475,0.50825 0,0.70212 l -2.352625,2.3525"
       style="fill:#a36964;fill-opacity:1;fill-rule:nonzero;stroke:none;opacity:0.435"
       id="path7029"
       inkscape:connector-curvature="0" />
    <path
       d="m 41.125826,988.98818 c -0.19525,0.19488 -0.50825,0.19488 -0.705,0 L 24.770451,973.33543 c -0.195375,-0.19337 -0.195375,-0.50887 0,-0.70125 l 2.352,-2.3535 c 0.193875,-0.19387 0.50925,-0.19387 0.703125,0 l 15.651875,15.65238 c 0.194375,0.19475 0.194375,0.51125 0,0.70362 l -2.351625,2.3515"
       style="fill:#a36964;fill-opacity:1;fill-rule:nonzero;stroke:none;opacity:0.435"
       id="path7031"
       inkscape:connector-curvature="0" />
    <path
       d="m 46.921326,981.52193 -14.685125,-14.68512 7.21725,-7.21625 14.685125,14.685 -7.21725,7.21637"
       style="fill:#f4be0c;fill-opacity:1;fill-rule:nonzero;stroke:none;opacity:0.435"
       id="path7033"
       inkscape:connector-curvature="0" />
    <path
       d="m 39.233326,989.20943 0.7045,-0.70512 0.0025,0.003 -0.48825,0.48725 -0.21875,0.21537"
       style="fill:#8fb425;fill-opacity:1;fill-rule:nonzero;stroke:none;opacity:0.435"
       id="path7035"
       inkscape:connector-curvature="0" />
    <path
       d="m 38.107326,989.71431 c -0.382875,0 -0.763625,-0.1465 -1.05125,-0.44138 l -0.01125,0 -6.28075,-6.27887 1.832,-1.8325 7.34175,7.34275 -0.7045,0.70512 -0.0655,0.0635 c -0.293375,0.29488 -0.67775,0.44138 -1.0605,0.44138"
       style="fill:#6e4142;fill-opacity:1;fill-rule:nonzero;stroke:none;opacity:0.435"
       id="path7037"
       inkscape:connector-curvature="0" />
    <path
       d="m 41.097076,989.01406 c 0.0097,-0.009 0.0195,-0.017 0.02875,-0.0259 l 0.5205,-0.5215 -0.09913,0.10012 -0.420875,0.42138 c -0.0072,0.007 -0.01463,0.0137 -0.02188,0.02 -0.0025,0.003 -0.005,0.005 -0.0074,0.006 m 2.516125,-2.82713 c -0.01859,-0.0928 -0.06397,-0.18165 -0.135715,-0.2539 l -0.483875,-0.48388 0.8545,-0.8535 -0.404375,0.40863 -0.44525,0.44625 0.481375,0.48 c 0.03613,0.0361 0.066,0.0763 0.08838,0.12012 0.0215,0.0435 0.03662,0.0884 0.045,0.13625"
       style="fill:#8fb425;fill-opacity:1;fill-rule:nonzero;stroke:none;opacity:0.435"
       id="path7039"
       inkscape:connector-curvature="0" />
    <path
       d="m 42.993576,985.44918 -7.34225,-7.34237 0.872,-0.8725 7.34225,7.34225 -0.0175,0.0191 -0.8545,0.8535"
       style="fill:#6e4142;fill-opacity:1;fill-rule:nonzero;stroke:none;opacity:0.435"
       id="path7041"
       inkscape:connector-curvature="0" />
    <path
       d="m 47.405201,982.00581 -0.483875,-0.48388 1.097125,-1.09762 -0.40475,0.41012 -0.6895,0.6885 0.481,0.48288 m 5.588375,-6.55125 c -10e-4,-10e-4 -0.0015,-10e-4 -0.0025,-0.003 l 0.004,-0.002 0.0014,10e-4 -0.0029,0.004"
       style="fill:#8fb425;fill-opacity:1;fill-rule:nonzero;stroke:none;opacity:0.435"
       id="path7043"
       inkscape:connector-curvature="0" />
    <path
       d="m 52.991076,975.45156 0,0 0.004,-0.002 0,0 -0.004,0.002"
       style="fill:#6e4142;fill-opacity:1;fill-rule:nonzero;stroke:none;opacity:0.435"
       id="path7045"
       inkscape:connector-curvature="0" />
    <path
       d="m 53.178076,975.26556 0.9615,-0.96138 0.1675,0.16738 -0.166125,-0.165 -0.670875,0.67037 -0.292,0.28863 m 2.086,-0.42625 c 0.0215,-0.0151 0.042,-0.0328 0.061,-0.0528 l 2.353,-2.35113 c 0.024,-0.0239 0.0455,-0.0487 0.0635,-0.0761 -0.0054,0.007 -0.01125,0.0161 -0.01713,0.0249 -0.01313,0.0176 -0.02775,0.0351 -0.04387,0.0513 l -2.355,2.35112 c -0.0185,0.019 -0.03813,0.0366 -0.05862,0.0512 -10e-4,0 -0.0019,0.002 -0.0029,0.002 m 2.535145,-2.90875 c -0.02337,-0.0727 -0.064,-0.14013 -0.121125,-0.19775 l -0.4575,-0.4575 0.130875,0.128 0.329125,0.3285 c 0.0395,0.0401 0.07125,0.086 0.09475,0.13387 0.0093,0.021 0.0175,0.0434 0.02387,0.0649 m -0.42875,-0.85737 0.695875,-0.69538 0.0024,0.002 -0.438875,0.4375 -0.259375,0.25538 m 1.88525,-0.21388 0,0 0,0 m 1.76225,-1.76362 0.5865,-0.5865 c 3.75e-4,0 8.75e-4,-10e-4 8.75e-4,-10e-4 l 0,10e-4 c 0,0 -5e-4,0.002 -8.75e-4,0.002 l -0.4195,0.4185 -0.167,0.1665 m 0.58648,-1.29013 -0.4835,-0.48238 0.495625,-0.49512 -0.147,0.14987 -0.346625,0.34625 0.4815,0.48138 m 0.504875,-2.749 c -0.07275,-0.18213 -0.183125,-0.3535 -0.331125,-0.501 l -1.795375,-1.79638 1.797375,1.79738 c 0.123,0.12262 0.220625,0.26275 0.2915,0.41262 0.01363,0.0287 0.02638,0.0576 0.03762,0.0874"
       style="fill:#8fb425;fill-opacity:1;fill-rule:nonzero;stroke:none;opacity:0.435"
       id="path7047"
       inkscape:connector-curvature="0" />
    <path
       d="m 53.175701,975.26806 0.962875,-0.9625 -7.34225,-7.34275 5e-4,-10e-4 7.34275,7.34237 -0.9615,0.96138 -0.0024,0.002 m 4.0175,-4.02013 -7.34125,-7.34125 0.87215,-0.87112 7.34225,7.34225 -0.695875,0.69537 -0.17725,0.17475 m 3.92775,-3.92475 -7.34175,-7.34275 1.711875,-1.71237 4.49175,4.49112 1.795375,1.79638 c 0.148,0.1475 0.258375,0.31887 0.331125,0.501 0.208875,0.53512 0.0995,1.1665 -0.329125,1.604 l -0.163625,0.1675 -0.495625,0.49512"
       style="fill:#6e4142;fill-opacity:1;fill-rule:nonzero;stroke:none;opacity:0.435"
       id="path7049"
       inkscape:connector-curvature="0" />
    <path
       d="m 58.894951,970.99943 c -0.06737,0 -0.132875,-0.0136 -0.19,-0.039 l -0.13225,-0.0811 c -0.0069,-0.007 -0.01425,-0.0136 -0.0205,-0.02 l -0.4815,-0.4815 -0.002,0.003 -0.0024,-0.003 -7.34225,-7.34225 3.055125,-3.05512 7.34175,7.34275 0.4835,0.48237 c 0.0053,0.006 0.01063,0.0113 0.016,0.0176 l 0.085,0.13863 c 0.07475,0.17387 0.05025,0.38625 -0.100125,0.53762 l 0,0.009 c 0,0 -5e-4,10e-4 -8.75e-4,10e-4 l -0.5865,0.5865 -1.76225,1.75238 0,0.0113 0,0 c -8.75e-4,10e-4 -0.0024,0.002 -0.0034,0.002 l -0.158625,0.0986 c -0.063,0.0254 -0.131875,0.039 -0.19875,0.039"
       style="fill:#874f52;fill-opacity:1;fill-rule:nonzero;stroke:none;opacity:0.435"
       id="path7051"
       inkscape:connector-curvature="0" />
    <path
       d="m 54.974951,974.92668 c -0.105375,0 -0.210375,-0.0312 -0.30025,-0.0947 -0.01812,-0.0136 -0.03462,-0.0288 -0.05075,-0.0454 l -0.316875,-0.315 -0.1675,-0.16738 -7.34275,-7.34237 3.055125,-3.05513 7.34125,7.34125 -3.75e-4,0 0.02775,0.0274 0.4575,0.4575 c 0.05712,0.0576 0.09775,0.125 0.121125,0.19775 0.0425,0.14263 0.023,0.29888 -0.05762,0.42875 -0.018,0.0274 -0.0395,0.0522 -0.0635,0.0761 l -2.353005,2.35114 c -0.019,0.02 -0.0395,0.0376 -0.061,0.0528 -0.08737,0.0586 -0.1885,0.0874 -0.289125,0.0874"
       style="fill:#874f52;fill-opacity:1;fill-rule:nonzero;stroke:none;opacity:0.435"
       id="path7053"
       inkscape:connector-curvature="0" />
    <path
       d="m 40.448201,975.04931 -0.86925,-0.87013 0,0 0.86925,0.87013"
       style="fill:#6e4142;fill-opacity:1;fill-rule:nonzero;stroke:none;opacity:0.435"
       id="path7055"
       inkscape:connector-curvature="0" />
    <path
       d="m 44.694701,985.19818 c -0.06688,0 -0.13225,-0.0112 -0.1885,-0.0366 l -0.126375,-0.0771 c -0.0098,-0.009 -0.01913,-0.0176 -0.02838,-0.0264 l -0.398,-0.3975 -0.08438,-0.0874 -0.0035,0.003 -7.34225,-7.34225 3.055625,-3.05513 0.86925,0.87013 6.473125,6.47262 0,0 0.483875,0.48388 c 0.038,0.0371 0.06838,0.081 0.09125,0.126 0.08888,0.18887 0.05862,0.4175 -0.09125,0.56637 l -2.34962,2.3511 0,0.009 c -0.0039,0.004 -0.0074,0.007 -0.01075,0.01 l -0.151875,0.0937 c -0.0625,0.0254 -0.130875,0.0366 -0.19825,0.0366"
       style="fill:#874f52;fill-opacity:1;fill-rule:nonzero;stroke:none;opacity:0.435"
       id="path7057"
       inkscape:connector-curvature="0" />
    <path
       d="m 40.774326,989.12693 c -0.111375,0 -0.222125,-0.0361 -0.315,-0.1065 -0.01212,-0.01 -0.02437,-0.021 -0.03612,-0.0322 l -0.481375,-0.48287 -0.0015,0.002 -0.0025,-0.003 -7.34175,-7.34275 3.05525,-3.05475 7.34225,7.34237 0.483875,0.48388 c 0.07175,0.0722 0.117125,0.16112 0.13575,0.25387 0.02825,0.15625 -0.01563,0.32125 -0.132875,0.4375 l -1.834,1.84225 -0.5205,0.5215 c -0.0092,0.009 -0.019,0.0171 -0.02875,0.0259 -0.09475,0.0752 -0.2085,0.11288 -0.32275,0.11288"
       style="fill:#874f52;fill-opacity:1;fill-rule:nonzero;stroke:none;opacity:0.435"
       id="path7059"
       inkscape:connector-curvature="0" />
    <path
       d="m 46.921326,981.52193 -6.473125,-6.47262 -0.86925,-0.87013 7.217375,-7.21637 7.34225,7.34275 -0.962875,0.9625 -0.182125,0.18012 0.0015,10e-4 -0.004,0.002 c -0.65725,-0.5835 -1.482375,-0.875 -2.307625,-0.875 -0.8925,0 -1.785625,0.34138 -2.46675,1.023 -1.3125,1.312 -1.360875,3.40238 -0.1445,4.771 l -0.05375,0.0538 -1.097125,1.09763 0,0"
       style="fill:#ca9419;fill-opacity:1;fill-rule:nonzero;stroke:none;opacity:0.435"
       id="path7061"
       inkscape:connector-curvature="0" />
    <path
       d="m 99.919329,1027.3032 c -1.35938,1.3599 -3.564,1.3599 -4.92388,0 -1.36025,-1.3604 -1.36025,-3.565 0,-4.9239 1.35988,-1.3599 3.5645,-1.3599 4.92388,0 1.359881,1.3589 1.359881,3.5635 0,4.9239"
       style="fill:#845551;fill-opacity:1;fill-rule:nonzero;stroke:none;opacity:0.435"
       id="path7063"
       inkscape:connector-curvature="0" />
    <path
       d="m 98.514079,1025.8969 c -1.92725,1.9287 -5.05563,1.9238 -6.98288,0 l -0.18512,-0.1963 -43.129378,-45.17767 c -1.36275,-1.36137 -1.36275,-3.56112 0,-4.92337 1.360875,-1.36138 3.565375,-1.36525 4.92625,-0.004 l 45.173378,43.13374 0.19387,0.186 c 1.926761,1.9263 1.931131,5.0553 0.004,6.9815"
       style="fill:#a36964;fill-opacity:1;fill-rule:nonzero;stroke:none;opacity:0.435"
       id="path7065"
       inkscape:connector-curvature="0" />
    <path
       d="m 89.404199,1023.1044 c -0.67137,0.6724 -0.67137,1.7613 0,2.4322 0.67138,0.6713 1.76075,0.6713 2.43363,0 l 6.31637,-6.3174 c 0.67138,-0.6714 0.67038,-1.7598 0,-2.4326 -0.67287,-0.6709 -1.76275,-0.6709 -2.43412,0 l -6.31588,6.3178"
       style="fill:#845551;fill-opacity:1;fill-rule:nonzero;stroke:none;opacity:0.435"
       id="path7067"
       inkscape:connector-curvature="0" />
    <path
       d="m 37.445701,971.12543 -3.869125,-3.87012 6.3095,-6.30963 3.86875,3.86963 -6.309125,6.31012"
       style="fill:#f0e20c;fill-opacity:1;fill-rule:nonzero;stroke:none;opacity:0.435"
       id="path7069"
       inkscape:connector-curvature="0" />
    <path
       d="m 60.283076,1004.9306 c 0,2.0547 -1.667,3.7212 -3.722125,3.7212 l -30.6045,0 c -2.055625,0 -3.72175,-1.6665 -3.72175,-3.7212 0,-2.0562 1.666125,-3.7237 3.72175,-3.7237 l 30.6045,0 c 2.055125,0 3.722125,1.6675 3.722125,3.7237"
       style="fill:#845551;fill-opacity:1;fill-rule:nonzero;stroke:none;opacity:0.435"
       id="path7071"
       inkscape:connector-curvature="0" />
    <path
       d="m 20.028201,1010.7881 42.4605,0 0,-5.8575 -42.4605,0 0,5.8575 z"
       style="fill:#a36964;fill-opacity:1;fill-rule:nonzero;stroke:none;opacity:0.435"
       id="path7073"
       inkscape:connector-curvature="0" />
    <path
       d="m 20.028201,1007.6181 42.4605,0 0,-0.9639 -42.4605,0 0,0.9639 z"
       style="fill:#f0e20c;fill-opacity:1;fill-rule:nonzero;stroke:none;opacity:0.435"
       id="path7075"
       inkscape:connector-curvature="0" />
    <path
       d="m 38.105326,989.72068 c -0.355,0 -0.709875,-0.1265 -0.992625,-0.379 l -0.06888,-0.0687 10e-4,0 0.0082,0.009 c 0.290625,0.2915 0.672875,0.4375 1.05625,0.4375 0.11325,0 0.2265,-0.0122 0.337375,-0.0386 -0.112375,0.0264 -0.226625,0.0401 -0.341375,0.0401"
       style="fill:#674240;fill-opacity:1;fill-rule:nonzero;stroke:none;opacity:0.435"
       id="path7079"
       inkscape:connector-curvature="0" />
    <path
       d="m 58.901326,971.00681 c -0.123625,0 -0.246625,-0.045 -0.342375,-0.13625 l 0.01375,0.009 c 0.09375,0.0835 0.212375,0.126 0.3315,0.126 0.125,0 0.251,-0.0474 0.348125,-0.1435 l 0,0 c -0.09712,0.0976 -0.224125,0.145 -0.351,0.145 m 2.80175,-2.6362 c 0.08438,-0.17875 0.05613,-0.395 -0.08263,-0.54738 l -3.75e-4,0 c 0.140125,0.15088 0.167375,0.36863 0.083,0.54738"
       style="fill:#7f504e;fill-opacity:1;fill-rule:nonzero;stroke:none;opacity:0.435"
       id="path7081"
       inkscape:connector-curvature="0" />
    <path
       d="m 54.974076,974.93456 c -0.111375,0 -0.22275,-0.0376 -0.3135,-0.11288 0.0044,0.004 0.0093,0.006 0.01412,0.0103 0.08738,0.0674 0.193375,0.10113 0.299375,0.10113 0.09125,0 0.183,-0.0249 0.263125,-0.0752 -0.08062,0.0504 -0.17187,0.0767 -0.26312,0.0767"
       style="fill:#7f504e;fill-opacity:1;fill-rule:nonzero;stroke:none;opacity:0.435"
       id="path7083"
       inkscape:connector-curvature="0" />
    <path
       d="m 44.701576,985.20693 c -0.121125,0 -0.24225,-0.0439 -0.337375,-0.13275 l 0.01563,0.0102 c 0.09325,0.08 0.209,0.12013 0.325125,0.12013 0.121625,0 0.243625,-0.0455 0.339875,-0.13675 l 5e-4,0 c -0.09626,0.0928 -0.219755,0.13917 -0.343755,0.13917 m -0.61475,-0.40912 -0.21875,-0.21825 0.002,-0.003 0.08338,0.084 0.133375,0.13725 m 3.3525,-2.1275 c 0.125,-0.15225 0.144125,-0.36613 0.05712,-0.5385 -0.0039,-0.009 -0.0083,-0.0161 -0.01262,-0.025 0.103,0.17637 0.08787,0.40237 -0.0445,0.5635"
       style="fill:#7f504e;fill-opacity:1;fill-rule:nonzero;stroke:none;opacity:0.435"
       id="path7085"
       inkscape:connector-curvature="0" />
    <path
       d="m 40.773826,989.13418 c -0.124,0 -0.2485,-0.0464 -0.34575,-0.14012 0.01025,0.0103 0.0205,0.0176 0.03125,0.0264 0.09137,0.0752 0.203625,0.11275 0.3155,0.11275 0.07913,0 0.158125,-0.019 0.23,-0.0566 -0.07225,0.0391 -0.151375,0.0576 -0.231,0.0576"
       style="fill:#7f504e;fill-opacity:1;fill-rule:nonzero;stroke:none;opacity:0.435"
       id="path7087"
       inkscape:connector-curvature="0" />
    <path
       d="m 38.446701,989.68056 c 0.26175,-0.0615 0.51025,-0.19375 0.713875,-0.39888 l 0.07275,-0.0723 0.21875,-0.21537 -0.288625,0.28762 c -0.204625,0.20513 -0.454125,0.33888 -0.71675,0.39888"
       style="fill:#6f8b28;fill-opacity:1;fill-rule:nonzero;stroke:none;opacity:0.435"
       id="path7089"
       inkscape:connector-curvature="0" />
    <path
       d="m 38.109326,989.71918 c -0.383375,0 -0.765625,-0.146 -1.05625,-0.4375 l -0.0082,-0.009 0.01125,0 c 0.287625,0.29488 0.668375,0.44138 1.05125,0.44138 0.38275,0 0.767125,-0.1465 1.0605,-0.44138 l 0.0655,-0.0635 -0.07275,0.0723 c -0.203675,0.20518 -0.452175,0.33743 -0.713925,0.39893 -0.110875,0.0264 -0.224125,0.0386 -0.337375,0.0386"
       style="fill:#563335;fill-opacity:1;fill-rule:nonzero;stroke:none;opacity:0.435"
       id="path7091"
       inkscape:connector-curvature="0" />
    <path
       d="m 41.004826,989.07656 c 0.03213,-0.0161 0.063,-0.0371 0.09225,-0.0625 0.0024,-10e-4 0.0049,-0.003 0.0074,-0.006 -0.03125,0.0274 -0.0645,0.0514 -0.09962,0.0684 m 0.542375,-0.50975 0.09913,-0.10013 1.831125,-1.83 c 0.1225,-0.12112 0.1675,-0.2925 0.13575,-0.44975 -0.0084,-0.0479 -0.0235,-0.0928 -0.045,-0.13625 0.09912,0.1875 0.06987,0.42625 -0.08838,0.5835 l -1.932655,1.93265 m 3.508375,-3.50875 0,0 2.349625,-2.35013 c 0.01212,-0.0113 0.02338,-0.0234 0.03413,-0.0376 -0.01075,0.0142 -0.022,0.0264 -0.03413,0.0376 l -2.349625,2.35021 m -1.611875,-0.0538 0.404375,-0.40863 0.0175,-0.0191 0.0025,0.003 -0.424375,0.42475"
       style="fill:#6f8b28;fill-opacity:1;fill-rule:nonzero;stroke:none;opacity:0.435"
       id="path7093"
       inkscape:connector-curvature="0" />
    <path
       d="m 43.848076,984.59568 0.0175,-0.0191 0,0 -0.0175,0.0191"
       style="fill:#563335;fill-opacity:1;fill-rule:nonzero;stroke:none;opacity:0.435"
       id="path7095"
       inkscape:connector-curvature="0" />
    <path
       d="m 47.613701,980.83443 0.40475,-0.41012 0.05425,-0.0537 c 5e-4,10e-4 8.75e-4,10e-4 0.0019,0.002 l -0.460875,0.4615 m 5.382725,-5.3839 -0.0014,-10e-4 0.183,-0.18362 0.292,-0.28863 -0.473625,0.47363"
       style="fill:#6f8b28;fill-opacity:1;fill-rule:nonzero;stroke:none;opacity:0.435"
       id="path7097"
       inkscape:connector-curvature="0" />
    <path
       d="m 52.995076,975.44918 0,0 0.180625,-0.18112 0.0024,-0.002 -0.183,0.18362"
       style="fill:#563335;fill-opacity:1;fill-rule:nonzero;stroke:none;opacity:0.435"
       id="path7099"
       inkscape:connector-curvature="0" />
    <path
       d="m 55.237201,974.85781 c 0.0087,-0.006 0.01812,-0.0121 0.02687,-0.0185 10e-4,0 0.0019,-0.002 0.0029,-0.002 -0.0097,0.006 -0.0195,0.0141 -0.02975,0.02"
       style="fill:#6f8b28;fill-opacity:1;fill-rule:nonzero;stroke:none;opacity:0.435"
       id="path7101"
       inkscape:connector-curvature="0" />
    <path
       d="m 54.974076,974.93306 c -0.106,0 -0.212,-0.0338 -0.299375,-0.10113 0.08987,0.0635 0.194875,0.0947 0.30025,0.0947 0.100625,0 0.20175,-0.0287 0.289125,-0.0874 -0.0087,0.006 -0.01812,0.0126 -0.02687,0.0185 -0.08013,0.0504 -0.171875,0.0752 -0.263125,0.0752"
       style="fill:#6a3d40;fill-opacity:1;fill-rule:nonzero;stroke:none;opacity:0.435"
       id="path7103"
       inkscape:connector-curvature="0" />
    <path
       d="m 57.724451,972.38418 c 0.0059,-0.009 0.01175,-0.0175 0.01713,-0.0249 0.0845,-0.1275 0.1035,-0.28612 0.05762,-0.42875 -0.0064,-0.0215 -0.01462,-0.0439 -0.02387,-0.0649 0.07912,0.166 0.0625,0.36863 -0.05087,0.5185"
       style="fill:#6f8b28;fill-opacity:1;fill-rule:nonzero;stroke:none;opacity:0.435"
       id="path7105"
       inkscape:connector-curvature="0" />
    <path
       d="m 57.741576,972.35931 c 0.08062,-0.12988 0.100125,-0.28613 0.05762,-0.42875 0.04588,0.14262 0.02688,0.30125 -0.05762,0.42875"
       style="fill:#6a3d40;fill-opacity:1;fill-rule:nonzero;stroke:none;opacity:0.435"
       id="path7107"
       inkscape:connector-curvature="0" />
    <path
       d="m 57.351451,971.40331 -0.130875,-0.128 -0.02638,-0.0259 0.17625,-0.17625 0.259375,-0.25538 -0.432125,0.43163 0.15375,0.15387"
       style="fill:#6f8b28;fill-opacity:1;fill-rule:nonzero;stroke:none;opacity:0.435"
       id="path7109"
       inkscape:connector-curvature="0" />
    <path
       d="m 57.194201,971.24943 -10e-4,-0.002 0.17725,-0.17475 -0.17625,0.17625"
       style="fill:#563335;fill-opacity:1;fill-rule:nonzero;stroke:none;opacity:0.435"
       id="path7111"
       inkscape:connector-curvature="0" />
    <path
       d="m 57.220576,971.27531 -0.02775,-0.0274 3.75e-4,0 10e-4,10e-4 0.02638,0.0259"
       style="fill:#6a3d40;fill-opacity:1;fill-rule:nonzero;stroke:none;opacity:0.435"
       id="path7113"
       inkscape:connector-curvature="0" />
    <path
       d="m 58.904201,971.00531 c -0.119125,0 -0.23775,-0.0425 -0.3315,-0.126 l 0.13225,0.0811 c 0.05712,0.0254 0.122625,0.039 0.19,0.039 0.06688,0 0.13575,-0.0136 0.19875,-0.039 l 0.158625,-0.0986 c -0.09712,0.0961 -0.223125,0.1435 -0.348125,0.1435"
       style="fill:#6a3d40;fill-opacity:1;fill-rule:nonzero;stroke:none;opacity:0.435"
       id="path7115"
       inkscape:connector-curvature="0" />
    <path
       d="m 59.255701,970.85931 0,0 1.76225,-1.76363 0.167,-0.1665 -1.92925,1.93013"
       style="fill:#6f8b28;fill-opacity:1;fill-rule:nonzero;stroke:none;opacity:0.435"
       id="path7117"
       inkscape:connector-curvature="0" />
    <path
       d="m 59.255701,970.85931 0,-0.0113 1.76225,-1.75238 -1.76225,1.76363"
       style="fill:#6a3d40;fill-opacity:1;fill-rule:nonzero;stroke:none;opacity:0.435"
       id="path7119"
       inkscape:connector-curvature="0" />
    <path
       d="m 61.605326,968.50918 0,-10e-4 c 0.0415,-0.0415 0.07375,-0.0879 0.09775,-0.13762 -0.024,0.0498 -0.05625,0.0961 -0.09775,0.13862"
       style="fill:#6f8b28;fill-opacity:1;fill-rule:nonzero;stroke:none;opacity:0.435"
       id="path7121"
       inkscape:connector-curvature="0" />
    <path
       d="m 61.605326,968.50818 0,-0.009 c 0.150375,-0.15137 0.174875,-0.36375 0.100125,-0.53762 l -0.085,-0.13863 c 0.13875,0.15238 0.167,0.36863 0.08263,0.54738 -0.024,0.0498 -0.05625,0.0961 -0.09775,0.13762"
       style="fill:#6a3d40;fill-opacity:1;fill-rule:nonzero;stroke:none;opacity:0.435"
       id="path7123"
       inkscape:connector-curvature="0" />
    <path
       d="m 61.469576,966.97793 0.147,-0.14987 0.161625,-0.16263 c 0.435125,-0.435 0.545375,-1.07225 0.331125,-1.60887 -0.01125,-0.0297 -0.024,-0.0586 -0.03762,-0.0874 0.264125,0.55375 0.1675,1.23775 -0.2915,1.69775 l -0.310625,0.311"
       style="fill:#6f8b28;fill-opacity:1;fill-rule:nonzero;stroke:none;opacity:0.435"
       id="path7125"
       inkscape:connector-curvature="0" />
    <path
       d="m 61.616576,966.82806 0.163625,-0.1675 c 0.428625,-0.4375 0.538,-1.06888 0.329125,-1.604 0.21425,0.53662 0.104,1.17387 -0.331125,1.60887 l -0.161625,0.16263"
       style="fill:#563335;fill-opacity:1;fill-rule:nonzero;stroke:none;opacity:0.435"
       id="path7127"
       inkscape:connector-curvature="0" />
    <path
       d="m 44.704951,985.20456 c -0.116125,0 -0.231875,-0.0401 -0.325125,-0.12013 l 0.126375,0.0771 c 0.05625,0.0254 0.121625,0.0366 0.1885,0.0366 0.06737,0 0.13575,-0.0113 0.19825,-0.0366 l 0.151875,-0.0937 c -0.09625,0.0913 -0.21825,0.13675 -0.339875,0.13675 m 0.350625,-0.1465 0,-0.009 2.349625,-2.35113 c 0.149875,-0.14887 0.180125,-0.3775 0.09125,-0.56637 0.087,0.17237 0.06788,0.38625 -0.05712,0.5385 -0.01075,0.0142 -0.022,0.0264 -0.03413,0.0376 l -2.349625,2.35038 m -1.102125,-0.3975 -0.08338,-0.084 -0.002,0.003 -0.0025,-0.003 0,0 0.0035,-0.003 0.08438,0.0874"
       style="fill:#6a3d40;fill-opacity:1;fill-rule:nonzero;stroke:none;opacity:0.435"
       id="path7129"
       inkscape:connector-curvature="0" />
    <path
       d="m 40.774826,989.13318 c -0.111875,0 -0.224125,-0.0375 -0.3155,-0.11275 0.09287,0.0704 0.203625,0.1065 0.315,0.1065 0.11425,0 0.228,-0.0376 0.32275,-0.11287 -0.02925,0.0254 -0.06012,0.0464 -0.09225,0.0625 -0.07188,0.0376 -0.150875,0.0566 -0.23,0.0566 m 0.8715,-0.6665 1.834,-1.84225 c 0.11725,-0.11625 0.161125,-0.28125 0.132875,-0.4375 0.03175,0.15725 -0.01325,0.32862 -0.13575,0.44975 l -1.831125,1.83"
       style="fill:#6a3d40;fill-opacity:1;fill-rule:nonzero;stroke:none;opacity:0.435"
       id="path7131"
       inkscape:connector-curvature="0" />
    <path
       d="m 48.018451,980.42431 0.05375,-0.0537 c 0,0 0,0 5e-4,0 l -0.05425,0.0537 m 4.976625,-4.97513 -0.0015,-10e-4 0.182125,-0.18012 -0.180625,0.18112"
       style="fill:#9e731e;fill-opacity:1;fill-rule:nonzero;stroke:none;opacity:0.435"
       id="path7133"
       inkscape:connector-curvature="0" />
    <path
       d="m 97.457449,1028.3232 c -0.874,0 -1.74862,-0.3276 -2.42337,-0.9815 5e-4,0 5e-4,0 10e-4,0 0.67375,0.6524 1.54637,0.979 2.41887,0.979 0.89113,0 1.78326,-0.3413 2.46438,-1.0229 0.510751,-0.5097 0.830131,-1.1387 0.958001,-1.7974 -0.12687,0.6612 -0.44575,1.2915 -0.957001,1.8028 -0.67962,0.6796 -1.57075,1.02 -2.46188,1.02"
       style="fill:#674240;fill-opacity:1;fill-rule:nonzero;stroke:none;opacity:0.435"
       id="path7135"
       inkscape:connector-curvature="0" />
    <path
       d="m 95.026329,1027.3417 c -1.26525,0 -2.53038,-0.4839 -3.49513,-1.4473 l -0.0694,-0.073 c 5e-4,-10e-4 0.002,-10e-4 0.002,-10e-4 l 0.067,0.066 c 0.96188,0.9624 2.23775,1.4501 3.5,1.4501 8.8e-4,0 0.002,0 0.004,0 -5e-4,0 -5e-4,0 -0.001,0 -0.002,0 -0.005,0 -0.008,0 m 4.93112,-4.9286 c -0.001,0 -0.002,0 -0.003,0 0,-1.2613 -0.48587,-2.5336 -1.44524,-3.4951 l 5e-4,0 c 0.96474,0.9648 1.44774,2.2315 1.44724,3.4976 M 58.542826,991.34081 48.216701,980.52293 c -0.04938,-0.0489 -0.09663,-0.0986 -0.142125,-0.15 -10e-4,-8.7e-4 -0.0014,-8.7e-4 -0.0019,-0.002 -5e-4,0 -5e-4,0 -5e-4,0 l 0.0078,-0.009 0.13825,0.16113 10.324625,10.81787"
       style="fill:#7f504e;fill-opacity:1;fill-rule:nonzero;stroke:none;opacity:0.435"
       id="path7137"
       inkscape:connector-curvature="0" />
    <path
       d="m 90.620449,1026.0404 c -0.44037,0 -0.88075,-0.1675 -1.21625,-0.5038 -0.28612,-0.2862 -0.45025,-0.6475 -0.49262,-1.0195 0.0439,0.372 0.20937,0.7348 0.49462,1.0185 0.32413,0.3247 0.77488,0.5 1.21188,0.5 0.28812,0 0.57475,-0.075 0.83737,-0.2237 l 0.009,0.01 c -8.7e-4,0 -0.002,0 -0.002,0 -0.26075,0.145 -0.55125,0.2188 -0.84137,0.2188 m 7.81837,-7.1963 -0.008,-0.01 c 0.3325,-0.5961 0.28613,-1.35 -0.1475,-1.9052 0.44,0.5527 0.49225,1.3125 0.15575,1.9126 m -2.17372,-2.4249 c 0.21437,-0.091 0.44287,-0.1361 0.67137,-0.1361 0.19475,0 0.38963,0.032 0.57513,0.099 -0.1865,-0.065 -0.38225,-0.096 -0.581,-0.096 -0.22663,0 -0.45313,0.046 -0.6655,0.1337"
       style="fill:#674240;fill-opacity:1;fill-rule:nonzero;stroke:none;opacity:0.435"
       id="path7139"
       inkscape:connector-curvature="0" />
    <path
       d="m 60.283076,1004.9233 -0.0019,0 c 0,-0.395 -0.06212,-0.7764 -0.17675,-1.1352 0.115125,0.3588 0.177625,0.7387 0.178625,1.1352"
       style="fill:#674240;fill-opacity:1;fill-rule:nonzero;stroke:none;opacity:0.435"
       id="path7141"
       inkscape:connector-curvature="0" />
    <path
       d="m 62.488701,1010.7881 -42.456625,0 -8.75e-4,0 42.4575,0 0,0"
       style="fill:#7f504e;fill-opacity:1;fill-rule:nonzero;stroke:none;opacity:0.435"
       id="path7143"
       inkscape:connector-curvature="0" />
  </g>
</svg>
