<?xml version="1.0" encoding="UTF-8" standalone="no"?>
<!-- Created with Inkscape (http://www.inkscape.org/) -->

<svg
   xmlns:dc="http://purl.org/dc/elements/1.1/"
   xmlns:cc="http://creativecommons.org/ns#"
   xmlns:rdf="http://www.w3.org/1999/02/22-rdf-syntax-ns#"
   xmlns:svg="http://www.w3.org/2000/svg"
   xmlns="http://www.w3.org/2000/svg"
   xmlns:sodipodi="http://sodipodi.sourceforge.net/DTD/sodipodi-0.dtd"
   xmlns:inkscape="http://www.inkscape.org/namespaces/inkscape"
   width="121.765"
   height="121.765"
   viewBox="0 0 121.765 121.765"
   id="svg8939"
   version="1.1"
   inkscape:version="0.91 r13725"
   sodipodi:docname="pa.svg">
  <defs
     id="defs8941" />
  <sodipodi:namedview
     id="base"
     pagecolor="#ffffff"
     bordercolor="#666666"
     borderopacity="1.0"
     inkscape:pageopacity="0.0"
     inkscape:pageshadow="2"
     inkscape:zoom="1.979899"
     inkscape:cx="-47.393934"
     inkscape:cy="35.126778"
     inkscape:document-units="px"
     inkscape:current-layer="layer1"
     showgrid="false"
     inkscape:window-width="1855"
     inkscape:window-height="1056"
     inkscape:window-x="1665"
     inkscape:window-y="24"
     inkscape:window-maximized="1"
     units="px" />
  <metadata
     id="metadata8944">
    <rdf:RDF>
      <cc:Work
         rdf:about="">
        <dc:format>image/svg+xml</dc:format>
        <dc:type
           rdf:resource="http://purl.org/dc/dcmitype/StillImage" />
        <dc:title></dc:title>
      </cc:Work>
    </rdf:RDF>
  </metadata>
  <g
     inkscape:label="Livello 1"
     inkscape:groupmode="layer"
     id="layer1"
     transform="translate(0,-930.59716)">
    <path
       d="m 121.49166,991.75299 c 0,33.62371 -27.258133,60.88251 -60.882632,60.88251 -33.624125,0 -60.88237521,-27.2588 -60.88237521,-60.88251 0,-33.62375 27.25825021,-60.8825 60.88237521,-60.8825 33.624499,0 60.882632,27.25875 60.882632,60.8825"
       style="fill:#f78f11;fill-opacity:1;fill-rule:nonzero;stroke:none;opacity:0.402"
       id="path6713"
       inkscape:connector-curvature="0" />
    <path
       d="m 21.909778,1018.3655 79.572252,0 0,-4.2227 -79.572252,0 0,4.2227 z"
       style="fill:#d0d0ce;fill-opacity:1;fill-rule:nonzero;stroke:none;opacity:0.72"
       id="path6715"
       inkscape:connector-curvature="0" />
    <path
       d="m 18.352653,986.51174 86.554257,0 0,-18.45563 -86.554257,0 0,18.45563 z"
       style="fill:#71c0c3;fill-opacity:1;fill-rule:nonzero;stroke:none;opacity:0.72"
       id="path6717"
       inkscape:connector-curvature="0" />
    <path
       d="m 20.126528,1014.1505 83.138632,0 0,-27.63814 -83.138632,0 0,27.63814 z"
       style="fill:#dedddb;fill-opacity:1;fill-rule:nonzero;stroke:none;opacity:0.72"
       id="path6719"
       inkscape:connector-curvature="0" />
    <path
       d="m 83.708528,999.12049 5.6709,0 0,-7.76563 -5.6709,0 0,7.76563 z"
       style="fill:#f3f3f3;fill-opacity:1;fill-rule:nonzero;stroke:none;opacity:0.72"
       id="path6721"
       inkscape:connector-curvature="0" />
    <path
       d="m 84.437153,998.39299 4.21485,0 0,-6.31055 -4.21485,0 0,6.31055 z"
       style="fill:#75aabe;fill-opacity:1;fill-rule:nonzero;stroke:none;opacity:0.72"
       id="path6723"
       inkscape:connector-curvature="0" />
    <path
       d="m 93.932277,999.12049 5.66944,0 0,-7.76563 -5.66944,0 0,7.76563 z"
       style="fill:#f3f3f3;fill-opacity:1;fill-rule:nonzero;stroke:none;opacity:0.72"
       id="path6725"
       inkscape:connector-curvature="0" />
    <path
       d="m 94.658277,998.39299 4.21583,0 0,-6.31055 -4.21583,0 0,6.31055 z"
       style="fill:#75aabe;fill-opacity:1;fill-rule:nonzero;stroke:none;opacity:0.72"
       id="path6727"
       inkscape:connector-curvature="0" />
    <path
       d="m 83.708528,1011.4342 5.6709,0 0,-7.7661 -5.6709,0 0,7.7661 z"
       style="fill:#f3f3f3;fill-opacity:1;fill-rule:nonzero;stroke:none;opacity:0.72"
       id="path6729"
       inkscape:connector-curvature="0" />
    <path
       d="m 84.437153,1010.7055 4.21485,0 0,-6.3101 -4.21485,0 0,6.3101 z"
       style="fill:#75aabe;fill-opacity:1;fill-rule:nonzero;stroke:none;opacity:0.72"
       id="path6731"
       inkscape:connector-curvature="0" />
    <path
       d="m 93.932277,1011.4342 5.66944,0 0,-7.7661 -5.66944,0 0,7.7661 z"
       style="fill:#f3f3f3;fill-opacity:1;fill-rule:nonzero;stroke:none;opacity:0.72"
       id="path6733"
       inkscape:connector-curvature="0" />
    <path
       d="m 94.658277,1010.7055 4.21583,0 0,-6.3101 -4.21583,0 0,6.3101 z"
       style="fill:#75aabe;fill-opacity:1;fill-rule:nonzero;stroke:none;opacity:0.72"
       id="path6735"
       inkscape:connector-curvature="0" />
    <path
       d="m 52.942028,1014.1242 -0.003,0 0,-1.7625 -0.771,0 0,0 0.774,0 0,1.7625"
       style="fill:#a0a9a8;fill-opacity:1;fill-rule:nonzero;stroke:none;opacity:0.72"
       id="path6737"
       inkscape:connector-curvature="0" />
    <path
       d="m 70.039153,1014.1242 -0.0034,0 0,-1.7625 0.775375,0 0,0 -0.772,0 0,1.7625"
       style="fill:#a0a9a8;fill-opacity:1;fill-rule:nonzero;stroke:none;opacity:0.72"
       id="path6739"
       inkscape:connector-curvature="0" />
    <path
       d="m 99.601657,992.99549 -0.7275,0 0,-0.9125 -4.21588,0 0,0.0788 -0.726,-0.72625 0,-0.0812 5.66938,0 0,1.64125"
       style="fill:#b2bab9;fill-opacity:1;fill-rule:nonzero;stroke:none;opacity:0.72"
       id="path6741"
       inkscape:connector-curvature="0" />
    <path
       d="m 95.723277,993.22799 -1.065,-1.06625 0,-0.0788 4.21588,0 0,0.9125 -3.15088,0 0,0.2325"
       style="fill:#558496;fill-opacity:1;fill-rule:nonzero;stroke:none;opacity:0.72"
       id="path6743"
       inkscape:connector-curvature="0" />
    <path
       d="m 23.698778,999.12049 5.671388,0 0,-7.76563 -5.671388,0 0,7.76563 z"
       style="fill:#f3f3f3;fill-opacity:1;fill-rule:nonzero;stroke:none;opacity:0.72"
       id="path6745"
       inkscape:connector-curvature="0" />
    <path
       d="m 24.426403,998.39299 4.216313,0 0,-6.31055 -4.216313,0 0,6.31055 z"
       style="fill:#75aabe;fill-opacity:1;fill-rule:nonzero;stroke:none;opacity:0.72"
       id="path6747"
       inkscape:connector-curvature="0" />
    <path
       d="m 33.921028,999.12049 5.670413,0 0,-7.76563 -5.670413,0 0,7.76563 z"
       style="fill:#f3f3f3;fill-opacity:1;fill-rule:nonzero;stroke:none;opacity:0.72"
       id="path6749"
       inkscape:connector-curvature="0" />
    <path
       d="m 34.648528,998.39299 4.21435,0 0,-6.31055 -4.21435,0 0,6.31055 z"
       style="fill:#75aabe;fill-opacity:1;fill-rule:nonzero;stroke:none;opacity:0.72"
       id="path6751"
       inkscape:connector-curvature="0" />
    <path
       d="m 23.698778,1011.4342 5.671388,0 0,-7.7661 -5.671388,0 0,7.7661 z"
       style="fill:#f3f3f3;fill-opacity:1;fill-rule:nonzero;stroke:none;opacity:0.72"
       id="path6753"
       inkscape:connector-curvature="0" />
    <path
       d="m 24.426403,1010.7055 4.216313,0 0,-6.3101 -4.216313,0 0,6.3101 z"
       style="fill:#75aabe;fill-opacity:1;fill-rule:nonzero;stroke:none;opacity:0.72"
       id="path6755"
       inkscape:connector-curvature="0" />
    <path
       d="m 33.921028,1011.4342 5.670413,0 0,-7.7661 -5.670413,0 0,7.7661 z"
       style="fill:#f3f3f3;fill-opacity:1;fill-rule:nonzero;stroke:none;opacity:0.72"
       id="path6757"
       inkscape:connector-curvature="0" />
    <path
       d="m 34.648528,1010.7055 4.21435,0 0,-6.3101 -4.21435,0 0,6.3101 z"
       style="fill:#75aabe;fill-opacity:1;fill-rule:nonzero;stroke:none;opacity:0.72"
       id="path6759"
       inkscape:connector-curvature="0" />
    <path
       d="m 35.712528,999.12049 -1.7915,0 0,-7.76625 5.670375,0 0,1.64125 -0.7285,0 0,-0.9125 -4.214375,0 0,6.31 1.064,0 0,0.7275"
       style="fill:#b2bab9;fill-opacity:1;fill-rule:nonzero;stroke:none;opacity:0.72"
       id="path6761"
       inkscape:connector-curvature="0" />
    <path
       d="m 35.712528,998.39299 -1.064,0 0,-6.31 4.214375,0 0,0.9125 -3.150375,0 0,5.3975"
       style="fill:#558496;fill-opacity:1;fill-rule:nonzero;stroke:none;opacity:0.72"
       id="path6763"
       inkscape:connector-curvature="0" />
    <path
       d="m 25.491278,999.12049 -1.7925,0 0,-7.76625 5.671375,0 0,1.64125 -0.7275,0 0,-0.9125 -4.21625,0 0,6.31 1.064875,0 0,0.7275"
       style="fill:#b2bab9;fill-opacity:1;fill-rule:nonzero;stroke:none;opacity:0.72"
       id="path6765"
       inkscape:connector-curvature="0" />
    <path
       d="m 25.491278,998.39299 -1.064875,0 0,-6.31 4.21625,0 0,0.9125 -3.151375,0 0,5.3975"
       style="fill:#558496;fill-opacity:1;fill-rule:nonzero;stroke:none;opacity:0.72"
       id="path6767"
       inkscape:connector-curvature="0" />
    <path
       d="m 35.712528,1011.4342 -1.7915,0 0,-7.7662 5.670375,0 0,1.64 -0.7285,0 0,-0.9125 -4.214375,0 0,6.31 1.064,0 0,0.7287"
       style="fill:#b2bab9;fill-opacity:1;fill-rule:nonzero;stroke:none;opacity:0.72"
       id="path6769"
       inkscape:connector-curvature="0" />
    <path
       d="m 35.712528,1010.7055 -1.064,0 0,-6.31 4.214375,0 0,0.9125 -3.150375,0 0,5.3975"
       style="fill:#558496;fill-opacity:1;fill-rule:nonzero;stroke:none;opacity:0.72"
       id="path6771"
       inkscape:connector-curvature="0" />
    <path
       d="m 25.491278,1011.4342 -1.7925,0 0,-7.7662 5.671375,0 0,1.64 -0.7275,0 0,-0.9125 -4.21625,0 0,6.31 1.064875,0 0,0.7287"
       style="fill:#b2bab9;fill-opacity:1;fill-rule:nonzero;stroke:none;opacity:0.72"
       id="path6773"
       inkscape:connector-curvature="0" />
    <path
       d="m 25.491278,1010.7055 -1.064875,0 0,-6.31 4.21625,0 0,0.9125 -3.151375,0 0,5.3975"
       style="fill:#558496;fill-opacity:1;fill-rule:nonzero;stroke:none;opacity:0.72"
       id="path6775"
       inkscape:connector-curvature="0" />
    <path
       d="m 70.035778,1014.1467 -2.704625,0 0,-0.022 2.704625,0 0,0.022 m -14.390625,0 -2.703125,0 0,-0.022 2.703125,0 0,0.022 m 15.3295,-1.785 -0.1635,0 0,-7.86 c 0,-1.0812 -0.4395,-2.0537 -1.143125,-2.7587 -0.706,-0.7063 -1.679625,-1.1438 -2.76125,-1.1438 -0.463375,0 -0.907625,0.08 -1.31925,0.2275 l 0,-11.99996 0,0 0,-2.3025 -8.193375,0 -0.002,0 0,2.35 c 5e-4,0 10e-4,-10e-4 0.002,-10e-4 l 0,11.95496 c -0.412625,-0.1475 -0.8575,-0.2288 -1.32275,-0.2288 -2.15875,0 -3.903375,1.7463 -3.903375,3.9025 l 0,7.86 -0.15725,0 0,-1.2262 -0.0034,0 0,0 -0.809125,0 0,-24.61501 20.588,0 0,0.009 -0.002,0 0,2.35 c 5e-4,0 10e-4,-10e-4 0.002,-10e-4 l 0,22.25751 0.0014,0 -0.813,0 0,0 0,1.2262"
       style="fill:#9db4b1;fill-opacity:1;fill-rule:nonzero;stroke:none;opacity:0.72"
       id="path6777"
       inkscape:connector-curvature="0" />
    <path
       d="m 55.645153,1014.1242 -2.703125,0 0,-1.7625 -0.774,0 0,-7.86 c 0,-2.1562 1.744625,-3.9025 3.903375,-3.9025 0.46525,0 0.910125,0.081 1.32275,0.2288 l 0,10.3112 -0.8135,0 0,1.2313 -0.9355,0 0,1.7537"
       style="fill:#70898c;fill-opacity:1;fill-rule:nonzero;stroke:none;opacity:0.72"
       id="path6779"
       inkscape:connector-curvature="0" />
    <path
       d="m 70.035778,1014.1242 -2.704625,0 0,-1.7537 -0.931125,0 0,-1.2313 -0.8125,0 0,-10.3125 c 0.411625,-0.1475 0.855875,-0.2275 1.31925,-0.2275 1.081625,0 2.05525,0.4375 2.76125,1.1438 0.703625,0.705 1.143125,1.6775 1.143125,2.7587 l 0,7.86 -0.775375,0 0,1.7625"
       style="fill:#70898c;fill-opacity:1;fill-rule:nonzero;stroke:none;opacity:0.72"
       id="path6781"
       inkscape:connector-curvature="0" />
    <path
       d="m 55.083153,1015.5542 -2.141125,0 0,-1.4 0.732875,0 1.40825,1.4"
       style="fill:#92a8a5;fill-opacity:1;fill-rule:nonzero;stroke:none;opacity:0.72"
       id="path6783"
       inkscape:connector-curvature="0" />
    <path
       d="m 101.48204,1018.3655 -16.584012,0 0,-2.8125 -1.4575,0 0,-1.4025 -13.403875,0 31.445387,0 0,4.215"
       style="fill:#92a8a5;fill-opacity:1;fill-rule:nonzero;stroke:none;opacity:0.72"
       id="path6785"
       inkscape:connector-curvature="0" />
    <path
       d="m 89.007903,986.51174 -8.495625,0 0,-1 1.589375,0 0,-1.06 1.409625,0 0.8355,-1.06625 0.2085,-0.26625 0.160625,0.125 0.357375,0.28 0.414125,-0.5325 3.5205,3.52"
       style="fill:#529aa1;fill-opacity:1;fill-rule:nonzero;stroke:none;opacity:0.72"
       id="path6787"
       inkscape:connector-curvature="0" />
    <path
       d="m 101.48541,1014.1505 -31.448757,0 0,-0.01 0.0025,0 0,0 11.687,0 0,0 0.002,0 0,-1.7838 -0.931625,0 0,-1.2275 -0.003,0 0,0 -0.817875,0 0.003,0 0,-22.30495 c 5e-4,0 5e-4,10e-4 8.75e-4,10e-4 l 0,-2.3025 -8.75e-4,0 0,-0.009 0.533625,0 0,-0.004 8.495625,0 4.924374,4.92375 0,7.685 1.791,0 3.87838,0 0,-2.015 3.658753,3.6587 0,13.3775 -1.775,0 0,0.01 m -5.762133,-2.7162 3.87838,0 0,-6.1263 0,-1.64 -5.66938,0 0,7.7663 1.791,0 m -10.222249,0 3.8785,0 0,-6.1263 5e-4,0 0,-1.64 -5e-4,0 -5.671,0 0,7.7663 1.7925,0 m 0,-12.31376 3.8785,0 0,-6.125 5e-4,0 0,-1.64125 -5e-4,0 -5.671,0 0,7.76625 1.7925,0"
       style="fill:#9db4b1;fill-opacity:1;fill-rule:nonzero;stroke:none;opacity:0.72"
       id="path6789"
       inkscape:connector-curvature="0" />
    <path
       d="m 89.379528,999.12049 -3.8785,0 0,-0.7275 3.150875,0 0,-5.3975 0.727625,0 0,6.125"
       style="fill:#aec6c4;fill-opacity:1;fill-rule:nonzero;stroke:none;opacity:0.72"
       id="path6791"
       inkscape:connector-curvature="0" />
    <path
       d="m 85.501028,998.39299 3.150875,0 0,-5.39746 -3.150875,0 0,5.39746 z"
       style="fill:#548b9d;fill-opacity:1;fill-rule:nonzero;stroke:none;opacity:0.72"
       id="path6793"
       inkscape:connector-curvature="0" />
    <path
       d="m 99.601657,999.12049 -3.87838,0 0,-0.7275 3.15088,0 0,-2.015 0.003,0.003 0.72462,0.725 0,2.015"
       style="fill:#aec6c4;fill-opacity:1;fill-rule:nonzero;stroke:none;opacity:0.72"
       id="path6795"
       inkscape:connector-curvature="0" />
    <path
       d="m 98.874157,998.39299 -3.15088,0 0,-5.165 3.15088,3.15 0,2.015"
       style="fill:#548b9d;fill-opacity:1;fill-rule:nonzero;stroke:none;opacity:0.72"
       id="path6797"
       inkscape:connector-curvature="0" />
    <path
       d="m 89.379528,1011.4342 -3.8785,0 0,-0.7287 3.150875,0 0,-5.3975 0.727625,0 0,6.1262"
       style="fill:#aec6c4;fill-opacity:1;fill-rule:nonzero;stroke:none;opacity:0.72"
       id="path6799"
       inkscape:connector-curvature="0" />
    <path
       d="m 85.501028,1010.7055 3.150875,0 0,-5.3975 -3.150875,0 0,5.3975 z"
       style="fill:#548b9d;fill-opacity:1;fill-rule:nonzero;stroke:none;opacity:0.72"
       id="path6801"
       inkscape:connector-curvature="0" />
    <path
       d="m 99.601657,1011.4342 -3.87838,0 0,-0.7287 3.15088,0 0,-5.3975 0.7275,0 0,6.1262"
       style="fill:#aec6c4;fill-opacity:1;fill-rule:nonzero;stroke:none;opacity:0.72"
       id="path6803"
       inkscape:connector-curvature="0" />
    <path
       d="m 95.723277,1010.7055 3.15088,0 0,-5.3975 -3.15088,0 0,5.3975 z"
       style="fill:#548b9d;fill-opacity:1;fill-rule:nonzero;stroke:none;opacity:0.72"
       id="path6805"
       inkscape:connector-curvature="0" />
    <path
       d="m 95.723277,999.12049 -1.791,0 0,-7.685 0.726,0.72625 0,6.23125 1.065,0 0,0.7275"
       style="fill:#7d9898;fill-opacity:1;fill-rule:nonzero;stroke:none;opacity:0.72"
       id="path6807"
       inkscape:connector-curvature="0" />
    <path
       d="m 95.723277,998.39299 -1.065,0 0,-6.23125 1.065,1.06625 0,5.165"
       style="fill:#3e697b;fill-opacity:1;fill-rule:nonzero;stroke:none;opacity:0.72"
       id="path6809"
       inkscape:connector-curvature="0" />
    <path
       d="m 89.379528,992.99549 5e-4,0 0,-1.64063 -5e-4,0 0,1.64063 z"
       style="fill:#70898c;fill-opacity:1;fill-rule:nonzero;stroke:none;opacity:0.72"
       id="path6811"
       inkscape:connector-curvature="0" />
    <path
       d="m 85.501028,999.12049 -1.7925,0 0,-7.76625 5.671,0 0,1.64125 -0.727625,0 0,-0.9125 -4.21475,0 0,6.31 1.063875,0 0,0.7275"
       style="fill:#7d9898;fill-opacity:1;fill-rule:nonzero;stroke:none;opacity:0.72"
       id="path6813"
       inkscape:connector-curvature="0" />
    <path
       d="m 85.501028,998.39299 -1.063875,0 0,-6.31 4.21475,0 0,0.9125 -3.150875,0 0,5.3975"
       style="fill:#3e697b;fill-opacity:1;fill-rule:nonzero;stroke:none;opacity:0.72"
       id="path6815"
       inkscape:connector-curvature="0" />
    <path
       d="m 95.723277,1011.4342 -1.791,0 0,-7.7662 5.66938,0 0,1.64 -0.7275,0 0,-0.9125 -4.21588,0 0,6.31 1.065,0 0,0.7287"
       style="fill:#7d9898;fill-opacity:1;fill-rule:nonzero;stroke:none;opacity:0.72"
       id="path6817"
       inkscape:connector-curvature="0" />
    <path
       d="m 95.723277,1010.7055 -1.065,0 0,-6.31 4.21588,0 0,0.9125 -3.15088,0 0,5.3975"
       style="fill:#3e697b;fill-opacity:1;fill-rule:nonzero;stroke:none;opacity:0.72"
       id="path6819"
       inkscape:connector-curvature="0" />
    <path
       d="m 89.379528,1005.308 5e-4,0 0,-1.6407 -5e-4,0 0,1.6407 z"
       style="fill:#70898c;fill-opacity:1;fill-rule:nonzero;stroke:none;opacity:0.72"
       id="path6821"
       inkscape:connector-curvature="0" />
    <path
       d="m 85.501028,1011.4342 -1.7925,0 0,-7.7662 5.671,0 0,1.64 -0.727625,0 0,-0.9125 -4.21475,0 0,6.31 1.063875,0 0,0.7287"
       style="fill:#7d9898;fill-opacity:1;fill-rule:nonzero;stroke:none;opacity:0.72"
       id="path6823"
       inkscape:connector-curvature="0" />
    <path
       d="m 85.501028,1010.7055 -1.063875,0 0,-6.31 4.21475,0 0,0.9125 -3.150875,0 0,5.3975"
       style="fill:#3e697b;fill-opacity:1;fill-rule:nonzero;stroke:none;opacity:0.72"
       id="path6825"
       inkscape:connector-curvature="0" />
    <path
       d="m 71.786278,1011.1305 8.192388,0 0,-24.61476 -8.192388,0 0,24.61476 z"
       style="fill:#ffffff;fill-opacity:1;fill-rule:nonzero;stroke:none;opacity:0.72"
       id="path6827"
       inkscape:connector-curvature="0" />
    <path
       d="m 85.484903,982.99299 -0.4135,0.52875 -0.516125,-0.4025 -23.00925,-17.1575 -23.0615,17.19875 -0.522,0.395 -0.412125,-0.5225 23.995625,-17.895 23.938875,17.855"
       style="fill:#9fd8c9;fill-opacity:1;fill-rule:nonzero;stroke:none;opacity:0.72"
       id="path6829"
       inkscape:connector-curvature="0" />
    <path
       d="m 84.555278,983.11924 -1.044,1.3325 -44.014125,0 -1.012625,-1.29125 23.0615,-17.19875 23.00925,17.1575"
       style="fill:#f5f5f5;fill-opacity:1;fill-rule:nonzero;stroke:none;opacity:0.72"
       id="path6831"
       inkscape:connector-curvature="0" />
    <path
       d="m 44.862903,981.77799 16.683125,-12.445 16.686,12.445 -33.369125,0"
       style="fill:#e8e7e6;fill-opacity:1;fill-rule:nonzero;stroke:none;opacity:0.72"
       id="path6833"
       inkscape:connector-curvature="0" />
    <path
       d="m 82.101653,984.45174 0,1.06 -1.589375,0 0,1.00375 -37.877875,0 0,-1.00375 -1.758375,0 0,-1.06 41.225625,0"
       style="fill:#e8e7e6;fill-opacity:1;fill-rule:nonzero;stroke:none;opacity:0.72"
       id="path6835"
       inkscape:connector-curvature="0" />
    <path
       d="m 52.939028,1012.3617 0,1.7838 -11.686,0 0,-1.7838 0.936,0 0,-1.2312 9.818375,0 0,1.2312 0.931625,0"
       style="fill:#f5f5f5;fill-opacity:1;fill-rule:nonzero;stroke:none;opacity:0.72"
       id="path6837"
       inkscape:connector-curvature="0" />
    <path
       d="m 81.726153,1012.3617 0,1.7838 -11.687,0 0,-1.7838 0.9355,0 0,-1.2312 9.818875,0 0,1.2312 0.932625,0"
       style="fill:#f5f5f5;fill-opacity:1;fill-rule:nonzero;stroke:none;opacity:0.72"
       id="path6839"
       inkscape:connector-curvature="0" />
    <path
       d="m 43.001528,1011.1305 8.192875,0 0,-24.61476 -8.192875,0 0,24.61476 z"
       style="fill:#ffffff;fill-opacity:1;fill-rule:nonzero;stroke:none;opacity:0.72"
       id="path6841"
       inkscape:connector-curvature="0" />
    <path
       d="m 75.883903,1010.448 c -0.393125,0 -0.712375,-0.3663 -0.712375,-0.8213 l 0,-21.41996 c 0,-10e-4 0,-0.002 0,-0.004 0.25675,-0.015 0.516125,-0.0225 0.77825,-0.0225 0.216375,0 0.431625,0.005 0.6445,0.0163 0,0.003 0,0.006 0,0.01 l 0,21.42006 c 0,0.455 -0.316875,0.8212 -0.710375,0.8212"
       style="fill:#efefee;fill-opacity:1;fill-rule:nonzero;stroke:none;opacity:0.72"
       id="path6843"
       inkscape:connector-curvature="0" />
    <path
       d="m 78.108528,1010.448 c -0.297875,0 -0.536125,-0.3663 -0.536125,-0.8213 l 0,-21.34621 c 0.36475,0.045 0.722125,0.105 1.07075,0.17875 l 0,21.16746 c 0,0.455 -0.23925,0.8213 -0.534625,0.8213"
       style="fill:#efefee;fill-opacity:1;fill-rule:nonzero;stroke:none;opacity:0.72"
       id="path6845"
       inkscape:connector-curvature="0" />
    <path
       d="m 79.536653,1010.448 c -0.146375,0 -0.262125,-0.3663 -0.262125,-0.8213 l 0,-21.01496 c 0.17775,0.0475 0.3535,0.1 0.525875,0.155 l 0,20.85996 c 0,0.455 -0.118125,0.8213 -0.26375,0.8213"
       style="fill:#efefee;fill-opacity:1;fill-rule:nonzero;stroke:none;opacity:0.72"
       id="path6847"
       inkscape:connector-curvature="0" />
    <path
       d="m 72.172903,1010.448 c -0.147375,0 -0.2665,-0.3663 -0.2665,-0.8213 l 0,-20.79496 c 0.17425,-0.06 0.352,-0.11625 0.532625,-0.16875 l 0,20.96371 c 0,0.455 -0.118125,0.8213 -0.266125,0.8213"
       style="fill:#efefee;fill-opacity:1;fill-rule:nonzero;stroke:none;opacity:0.72"
       id="path6849"
       inkscape:connector-curvature="0" />
    <path
       d="m 73.574278,1010.448 c -0.283125,0 -0.50975,-0.3663 -0.50975,-0.8213 l 0,-21.12496 c 0.332,-0.0763 0.671875,-0.14 1.0195,-0.19 l 0,21.31496 c 0,0.455 -0.229,0.8213 -0.50975,0.8213"
       style="fill:#efefee;fill-opacity:1;fill-rule:nonzero;stroke:none;opacity:0.72"
       id="path6851"
       inkscape:connector-curvature="0" />
    <path
       d="m 47.098278,1010.448 c -0.392125,0 -0.71,-0.3663 -0.71,-0.8213 l 0,-21.41996 c 0,-10e-4 0,-0.002 0,-0.004 0.256375,-0.015 0.515625,-0.0226 0.777375,-0.0226 0.21625,0 0.431125,0.005 0.644,0.0163 0,0.003 0,0.006 0,0.01 l 0,21.41996 c 0,0.455 -0.316875,0.8213 -0.711375,0.8213"
       style="fill:#efefee;fill-opacity:1;fill-rule:nonzero;stroke:none;opacity:0.72"
       id="path6853"
       inkscape:connector-curvature="0" />
    <path
       d="m 49.323778,1010.448 c -0.296875,0 -0.537125,-0.3663 -0.537125,-0.8213 l 0,-21.34746 c 0.36525,0.0462 0.72325,0.10625 1.072375,0.18 l 0,21.16746 c 0,0.455 -0.23975,0.8213 -0.53525,0.8213"
       style="fill:#efefee;fill-opacity:1;fill-rule:nonzero;stroke:none;opacity:0.72"
       id="path6855"
       inkscape:connector-curvature="0" />
    <path
       d="m 50.753528,1010.448 c -0.1475,0 -0.264125,-0.3663 -0.264125,-0.8213 l 0,-21.01496 c 0.178625,0.0475 0.354,0.1 0.52675,0.155 l 0,20.85996 c 0,0.455 -0.118125,0.8213 -0.262625,0.8213"
       style="fill:#efefee;fill-opacity:1;fill-rule:nonzero;stroke:none;opacity:0.72"
       id="path6857"
       inkscape:connector-curvature="0" />
    <path
       d="m 43.388778,1010.448 c -0.148,0 -0.266125,-0.3663 -0.266125,-0.8213 l 0,-20.79496 c 0.174375,-0.06 0.352,-0.11625 0.53275,-0.16875 l 0,20.96371 c 0,0.455 -0.11875,0.8213 -0.266625,0.8213"
       style="fill:#efefee;fill-opacity:1;fill-rule:nonzero;stroke:none;opacity:0.72"
       id="path6859"
       inkscape:connector-curvature="0" />
    <path
       d="m 44.788653,1010.448 c -0.28175,0 -0.50925,-0.3663 -0.50925,-0.8213 l 0,-21.12496 c 0.332,-0.0763 0.672875,-0.14 1.021,-0.19 l 0,21.31496 c 0,0.455 -0.2295,0.8213 -0.51175,0.8213"
       style="fill:#efefee;fill-opacity:1;fill-rule:nonzero;stroke:none;opacity:0.72"
       id="path6861"
       inkscape:connector-curvature="0" />
    <path
       d="m 83.441528,1015.5542 -43.850125,0 0,-1.4075 43.850125,0 0,1.4075"
       style="fill:#ffffff;fill-opacity:1;fill-rule:nonzero;stroke:none;opacity:0.72"
       id="path6863"
       inkscape:connector-curvature="0" />
    <path
       d="m 38.135403,1018.368 46.76275,0 0,-2.814 -46.76275,0 0,2.814 z"
       style="fill:#e6e6e4;fill-opacity:1;fill-rule:nonzero;stroke:none;opacity:0.72"
       id="path6865"
       inkscape:connector-curvature="0" />
    <path
       d="m 39.123153,983.97799 -0.638625,-0.8175 0.640625,0.81625 -0.002,0.001"
       style="fill:#55949b;fill-opacity:1;fill-rule:nonzero;stroke:none;opacity:0.72"
       id="path6867"
       inkscape:connector-curvature="0" />
    <path
       d="m 39.125153,983.97674 -0.640625,-0.81625 23.0615,-17.1975 0.9165,0.6825 -23.337375,17.33125"
       style="fill:#bebdbb;fill-opacity:1;fill-rule:nonzero;stroke:none;opacity:0.72"
       id="path6869"
       inkscape:connector-curvature="0" />
    <path
       d="m 46.763278,981.78049 -1.898,0 0.0035,-0.003 1.897875,0 -0.0034,0.003"
       style="fill:#bebdbb;fill-opacity:1;fill-rule:nonzero;stroke:none;opacity:0.72"
       id="path6871"
       inkscape:connector-curvature="0" />
    <path
       d="m 46.766653,981.77799 -1.897875,0 16.67725,-12.445 0.82275,0.61375 -15.602125,11.83125"
       style="fill:#b3b3b2;fill-opacity:1;fill-rule:nonzero;stroke:none;opacity:0.72"
       id="path6873"
       inkscape:connector-curvature="0" />
    <path
       d="m 70.039153,1015.5542 -17.100125,0 0,-1.4087 17.100125,0 0,1.4087"
       style="fill:#ffffff;fill-opacity:1;fill-rule:nonzero;stroke:none;opacity:0.72"
       id="path6875"
       inkscape:connector-curvature="0" />
    <path
       d="m 70.039153,1016.9642 -17.100125,0 0,-1.41 17.100125,0 0,1.41"
       style="fill:#f5f5f5;fill-opacity:1;fill-rule:nonzero;stroke:none;opacity:0.72"
       id="path6877"
       inkscape:connector-curvature="0" />
    <path
       d="m 67.331153,1012.3705 0,1.7837 -11.686,0 0,-1.7837 0.9355,0 0,-1.2313 9.819375,0 0,1.2313 0.931125,0"
       style="fill:#f5f5f5;fill-opacity:1;fill-rule:nonzero;stroke:none;opacity:0.72"
       id="path6879"
       inkscape:connector-curvature="0" />
    <path
       d="m 57.394153,1011.1392 8.193362,0 0,-24.61421 -8.193362,0 0,24.61421 z"
       style="fill:#ffffff;fill-opacity:1;fill-rule:nonzero;stroke:none;opacity:0.72"
       id="path6881"
       inkscape:connector-curvature="0" />
    <path
       d="m 61.491778,1010.458 c -0.393,0 -0.71,-0.3675 -0.71,-0.8225 l 0,-21.42001 c 0,-0.004 0,-0.009 0,-0.0125 0.255875,-0.015 0.51475,-0.0225 0.775875,-0.0225 0.216375,0 0.43125,0.005 0.643625,0.0163 5e-4,0.006 5e-4,0.0125 5e-4,0.0187 l 0,21.42001 c 0,0.455 -0.316375,0.8225 -0.71,0.8225"
       style="fill:#e7e6e5;fill-opacity:1;fill-rule:nonzero;stroke:none;opacity:0.72"
       id="path6883"
       inkscape:connector-curvature="0" />
    <path
       d="m 63.716403,1010.458 c -0.296875,0 -0.536125,-0.3675 -0.536125,-0.8225 l 0,-21.35501 c 0.36475,0.045 0.722125,0.105 1.07075,0.17875 l 0,21.17626 c 0,0.455 -0.23925,0.8225 -0.534625,0.8225"
       style="fill:#e7e6e5;fill-opacity:1;fill-rule:nonzero;stroke:none;opacity:0.72"
       id="path6885"
       inkscape:connector-curvature="0" />
    <path
       d="m 65.146028,1010.458 c -0.146375,0 -0.262625,-0.3675 -0.262625,-0.8225 l 0,-21.02376 c 0.17825,0.0488 0.3535,0.1 0.526375,0.15625 l 0,20.86751 c 0,0.455 -0.119625,0.8225 -0.26375,0.8225"
       style="fill:#e7e6e5;fill-opacity:1;fill-rule:nonzero;stroke:none;opacity:0.72"
       id="path6887"
       inkscape:connector-curvature="0" />
    <path
       d="m 57.782278,1010.458 c -0.148375,0 -0.268,-0.3675 -0.268,-0.8225 l 0,-20.80376 c 0.17475,-0.06 0.3525,-0.11625 0.533125,-0.16875 l 0,20.97251 c 0,0.455 -0.119125,0.8225 -0.265125,0.8225"
       style="fill:#e7e6e5;fill-opacity:1;fill-rule:nonzero;stroke:none;opacity:0.72"
       id="path6889"
       inkscape:connector-curvature="0" />
    <path
       d="m 59.181278,1010.458 c -0.28125,0 -0.507375,-0.3675 -0.507375,-0.8225 l 0,-21.13501 c 0.3315,-0.0763 0.671375,-0.13875 1.018625,-0.18875 l 0,21.32376 c 0,0.455 -0.2295,0.8225 -0.51125,0.8225"
       style="fill:#e7e6e5;fill-opacity:1;fill-rule:nonzero;stroke:none;opacity:0.72"
       id="path6891"
       inkscape:connector-curvature="0" />
    <path
       d="m 57.392153,988.87424 0,-2.35 0.002,0 0,2.34875 c -0.001,0 -0.0015,0.001 -0.002,0.001"
       style="fill:#75908f;fill-opacity:1;fill-rule:nonzero;stroke:none;opacity:0.72"
       id="path6893"
       inkscape:connector-curvature="0" />
    <path
       d="m 57.394153,988.87299 0,-2.34875 8.193375,0 0,2.3025 c -0.05912,-0.02 -0.11825,-0.04 -0.17775,-0.0588 l 0,-0.5525 c 0,-0.45375 -0.119625,-0.8225 -0.26375,-0.8225 -0.146375,0 -0.262625,0.36875 -0.262625,0.8225 l 0,0.39625 c -0.207,-0.0562 -0.418,-0.10625 -0.632375,-0.1525 l 0,-0.24375 c 0,-0.45375 -0.23925,-0.8225 -0.534625,-0.8225 -0.296875,0 -0.536125,0.36875 -0.536125,0.8225 l 0,0.065 c -0.32125,-0.04 -0.648,-0.0688 -0.979,-0.0838 -0.0088,-0.445 -0.32125,-0.80375 -0.7095,-0.80375 -0.389125,0 -0.704125,0.3625 -0.71,0.81 -0.369625,0.0213 -0.733375,0.0575 -1.08925,0.10875 l 0,-0.0963 c 0,-0.45375 -0.2295,-0.8225 -0.51125,-0.8225 -0.28125,0 -0.507375,0.36875 -0.507375,0.8225 l 0,0.285 c -0.212375,0.0487 -0.421375,0.10375 -0.6265,0.1625 l 0,-0.4475 c 0,-0.45375 -0.119125,-0.8225 -0.265125,-0.8225 -0.148375,0 -0.268,0.36875 -0.268,0.8225 l 0,0.61625 c -0.0405,0.0138 -0.08062,0.0275 -0.120125,0.0412"
       style="fill:#c5cfcb;fill-opacity:1;fill-rule:nonzero;stroke:none;opacity:0.72"
       id="path6895"
       inkscape:connector-curvature="0" />
    <path
       d="m 60.781778,988.20299 c 0.0059,-0.4475 0.320875,-0.81 0.71,-0.81 0.38825,0 0.70075,0.35875 0.7095,0.80375 -0.212375,-0.0113 -0.42725,-0.0163 -0.643625,-0.0163 -0.261125,0 -0.52,0.008 -0.775875,0.0225"
       style="fill:#afb7b4;fill-opacity:1;fill-rule:nonzero;stroke:none;opacity:0.72"
       id="path6897"
       inkscape:connector-curvature="0" />
    <path
       d="m 64.251028,988.45924 c -0.348625,-0.0738 -0.706,-0.13375 -1.07075,-0.17875 l 0,-0.065 c 0,-0.45375 0.23925,-0.8225 0.536125,-0.8225 0.295375,0 0.534625,0.36875 0.534625,0.8225 l 0,0.24375"
       style="fill:#afb7b4;fill-opacity:1;fill-rule:nonzero;stroke:none;opacity:0.72"
       id="path6899"
       inkscape:connector-curvature="0" />
    <path
       d="m 65.409778,988.76799 c -0.172875,-0.0562 -0.348125,-0.1075 -0.526375,-0.15625 l 0,-0.39625 c 0,-0.45375 0.11625,-0.8225 0.262625,-0.8225 0.144125,0 0.26375,0.36875 0.26375,0.8225 l 0,0.5525"
       style="fill:#afb7b4;fill-opacity:1;fill-rule:nonzero;stroke:none;opacity:0.72"
       id="path6901"
       inkscape:connector-curvature="0" />
    <path
       d="m 57.514278,988.83174 0,-0.61625 c 0,-0.45375 0.119625,-0.8225 0.268,-0.8225 0.146,0 0.265125,0.36875 0.265125,0.8225 l 0,0.4475 c -0.180625,0.0525 -0.358375,0.10875 -0.533125,0.16875"
       style="fill:#afb7b4;fill-opacity:1;fill-rule:nonzero;stroke:none;opacity:0.72"
       id="path6903"
       inkscape:connector-curvature="0" />
    <path
       d="m 58.673903,988.50049 0,-0.285 c 0,-0.45375 0.226125,-0.8225 0.507375,-0.8225 0.28175,0 0.51125,0.36875 0.51125,0.8225 l 0,0.0963 c -0.34725,0.05 -0.687125,0.1125 -1.018625,0.18875"
       style="fill:#afb7b4;fill-opacity:1;fill-rule:nonzero;stroke:none;opacity:0.72"
       id="path6905"
       inkscape:connector-curvature="0" />
    <path
       d="m 51.197403,988.82674 c -0.001,-10e-4 -0.002,-10e-4 -0.003,-10e-4 l 0,-2.30125 0.003,0 0,2.3025"
       style="fill:#a7b0ad;fill-opacity:1;fill-rule:nonzero;stroke:none;opacity:0.72"
       id="path6907"
       inkscape:connector-curvature="0" />
    <path
       d="m 43.001528,988.87424 0,-2.35 8.192875,0 0,2.30125 c -0.059,-0.02 -0.118125,-0.04 -0.17825,-0.0587 l 0,-0.56 c 0,-0.455 -0.118125,-0.8225 -0.262625,-0.8225 -0.1475,0 -0.264125,0.3675 -0.264125,0.8225 l 0,0.405 c -0.206625,-0.0562 -0.417,-0.1075 -0.630375,-0.1525 l 0,-0.2525 c 0,-0.455 -0.23975,-0.8225 -0.53525,-0.8225 -0.296875,0 -0.537125,0.3675 -0.537125,0.8225 l 0,0.0725 c -0.32025,-0.0387 -0.646375,-0.0675 -0.977,-0.0825 -0.0049,-0.45 -0.319875,-0.8125 -0.711375,-0.8125 -0.391125,0 -0.7085,0.36625 -0.71,0.81875 -0.369125,0.0213 -0.732375,0.0575 -1.087875,0.10875 l 0,-0.105 c 0,-0.455 -0.2295,-0.8225 -0.51175,-0.8225 -0.28175,0 -0.50925,0.3675 -0.50925,0.8225 l 0,0.295 c -0.2115,0.0487 -0.4195,0.1025 -0.624,0.16125 l 0,-0.45625 c 0,-0.455 -0.11875,-0.8225 -0.266625,-0.8225 -0.148,0 -0.266125,0.3675 -0.266125,0.8225 l 0,0.625 c -0.0405,0.0138 -0.08062,0.0275 -0.121125,0.0425"
       style="fill:#c5cfcb;fill-opacity:1;fill-rule:nonzero;stroke:none;opacity:0.72"
       id="path6909"
       inkscape:connector-curvature="0" />
    <path
       d="m 46.388278,988.20299 c 0.0015,-0.4525 0.318875,-0.81875 0.71,-0.81875 0.3915,0 0.7065,0.3625 0.711375,0.8125 -0.212875,-0.0113 -0.42775,-0.0163 -0.644,-0.0163 -0.26175,0 -0.521,0.008 -0.777375,0.0225"
       style="fill:#b5bfbb;fill-opacity:1;fill-rule:nonzero;stroke:none;opacity:0.72"
       id="path6911"
       inkscape:connector-curvature="0" />
    <path
       d="m 49.859028,988.45924 c -0.349125,-0.0738 -0.707125,-0.13375 -1.072375,-0.18 l 0,-0.0725 c 0,-0.455 0.24025,-0.8225 0.537125,-0.8225 0.2955,0 0.53525,0.3675 0.53525,0.8225 l 0,0.2525"
       style="fill:#b5bfbb;fill-opacity:1;fill-rule:nonzero;stroke:none;opacity:0.72"
       id="path6913"
       inkscape:connector-curvature="0" />
    <path
       d="m 51.016153,988.76674 c -0.17275,-0.055 -0.348125,-0.1075 -0.52675,-0.155 l 0,-0.405 c 0,-0.455 0.116625,-0.8225 0.264125,-0.8225 0.1445,0 0.262625,0.3675 0.262625,0.8225 l 0,0.56"
       style="fill:#b5bfbb;fill-opacity:1;fill-rule:nonzero;stroke:none;opacity:0.72"
       id="path6915"
       inkscape:connector-curvature="0" />
    <path
       d="m 43.122653,988.83174 0,-0.625 c 0,-0.455 0.118125,-0.8225 0.266125,-0.8225 0.147875,0 0.266625,0.3675 0.266625,0.8225 l 0,0.45625 c -0.18075,0.0525 -0.358375,0.10875 -0.53275,0.16875"
       style="fill:#b5bfbb;fill-opacity:1;fill-rule:nonzero;stroke:none;opacity:0.72"
       id="path6917"
       inkscape:connector-curvature="0" />
    <path
       d="m 44.279403,988.50174 0,-0.295 c 0,-0.455 0.2275,-0.8225 0.50925,-0.8225 0.28225,0 0.51175,0.3675 0.51175,0.8225 l 0,0.105 c -0.348125,0.05 -0.689,0.11375 -1.021,0.19"
       style="fill:#b5bfbb;fill-opacity:1;fill-rule:nonzero;stroke:none;opacity:0.72"
       id="path6919"
       inkscape:connector-curvature="0" />
    <path
       d="m 71.784278,988.87424 0,-2.35 0.002,0 0,2.34875 c -10e-4,0 -0.0015,0.001 -0.002,0.001"
       style="fill:#75908f;fill-opacity:1;fill-rule:nonzero;stroke:none;opacity:0.72"
       id="path6921"
       inkscape:connector-curvature="0" />
    <path
       d="m 79.979528,988.82674 c -3.75e-4,0 -3.75e-4,-10e-4 -8.75e-4,-10e-4 l 0,-2.30125 8.75e-4,0 0,2.3025"
       style="fill:#75908f;fill-opacity:1;fill-rule:nonzero;stroke:none;opacity:0.72"
       id="path6923"
       inkscape:connector-curvature="0" />
    <path
       d="m 71.786278,988.87299 0,-2.34875 8.192375,0 0,2.30125 c -0.05912,-0.02 -0.11825,-0.0387 -0.17825,-0.0587 l 0,-0.56 c 0,-0.455 -0.118125,-0.8225 -0.26375,-0.8225 -0.146375,0 -0.262125,0.3675 -0.262125,0.8225 l 0,0.405 c -0.207,-0.0562 -0.4175,-0.1075 -0.631375,-0.1525 l 0,-0.2525 c 0,-0.455 -0.23925,-0.8225 -0.534625,-0.8225 -0.297875,0 -0.536125,0.3675 -0.536125,0.8225 l 0,0.0738 c -0.321375,-0.04 -0.647,-0.0688 -0.978125,-0.0838 -0.0049,-0.45 -0.31975,-0.8125 -0.710375,-0.8125 -0.392125,0 -0.711,0.36625 -0.712375,0.81875 -0.36875,0.0213 -0.732,0.0575 -1.0875,0.10875 l 0,-0.105 c 0,-0.455 -0.229,-0.8225 -0.50975,-0.8225 -0.283125,0 -0.50975,0.3675 -0.50975,0.8225 l 0,0.295 c -0.211875,0.0487 -0.420375,0.1025 -0.6255,0.16125 l 0,-0.45625 c 0,-0.455 -0.118125,-0.8225 -0.266125,-0.8225 -0.147375,0 -0.2665,0.3675 -0.2665,0.8225 l 0,0.625 c -0.04062,0.0138 -0.08062,0.0275 -0.120125,0.0412"
       style="fill:#c5cfcb;fill-opacity:1;fill-rule:nonzero;stroke:none;opacity:0.72"
       id="path6925"
       inkscape:connector-curvature="0" />
    <path
       d="m 75.171528,988.20299 c 0.0014,-0.4525 0.32025,-0.81875 0.712375,-0.81875 0.390625,0 0.7055,0.3625 0.710375,0.8125 -0.212875,-0.0113 -0.428125,-0.0163 -0.6445,-0.0163 -0.262125,0 -0.5215,0.008 -0.77825,0.0225"
       style="fill:#b5bfbb;fill-opacity:1;fill-rule:nonzero;stroke:none;opacity:0.72"
       id="path6927"
       inkscape:connector-curvature="0" />
    <path
       d="m 78.643153,988.45924 c -0.348625,-0.0738 -0.706,-0.13375 -1.07075,-0.17875 l 0,-0.0738 c 0,-0.455 0.23825,-0.8225 0.536125,-0.8225 0.295375,0 0.534625,0.3675 0.534625,0.8225 l 0,0.2525"
       style="fill:#b5bfbb;fill-opacity:1;fill-rule:nonzero;stroke:none;opacity:0.72"
       id="path6929"
       inkscape:connector-curvature="0" />
    <path
       d="m 79.800403,988.76674 c -0.172375,-0.055 -0.348125,-0.1075 -0.525875,-0.155 l 0,-0.405 c 0,-0.455 0.11575,-0.8225 0.262125,-0.8225 0.145625,0 0.26375,0.3675 0.26375,0.8225 l 0,0.56"
       style="fill:#b5bfbb;fill-opacity:1;fill-rule:nonzero;stroke:none;opacity:0.72"
       id="path6931"
       inkscape:connector-curvature="0" />
    <path
       d="m 71.906403,988.83174 0,-0.625 c 0,-0.455 0.119125,-0.8225 0.2665,-0.8225 0.148,0 0.266125,0.3675 0.266125,0.8225 l 0,0.45625 c -0.180625,0.0525 -0.358375,0.10875 -0.532625,0.16875"
       style="fill:#b5bfbb;fill-opacity:1;fill-rule:nonzero;stroke:none;opacity:0.72"
       id="path6933"
       inkscape:connector-curvature="0" />
    <path
       d="m 73.064528,988.50174 0,-0.295 c 0,-0.455 0.226625,-0.8225 0.50975,-0.8225 0.28075,0 0.50975,0.3675 0.50975,0.8225 l 0,0.105 c -0.347625,0.05 -0.6875,0.11375 -1.0195,0.19"
       style="fill:#b5bfbb;fill-opacity:1;fill-rule:nonzero;stroke:none;opacity:0.72"
       id="path6935"
       inkscape:connector-curvature="0" />
    <path
       d="m 82.101653,985.51174 -41.225625,0 0,-1.06 41.225625,0 0,1.06"
       style="fill:#d2d4d2;fill-opacity:1;fill-rule:nonzero;stroke:none;opacity:0.72"
       id="path6937"
       inkscape:connector-curvature="0" />
    <path
       d="m 103.26041,986.51174 1.64649,0 0,-0.009 -1.64649,0 0,0.009 z"
       style="fill:#56939d;fill-opacity:1;fill-rule:nonzero;stroke:none;opacity:0.72"
       id="path6941"
       inkscape:connector-curvature="0" />
    <path
       d="m 103.26541,1000.7692 -0.005,0 0,-14.25246 0.005,0 0,14.25746"
       style="fill:#aca8ad;fill-opacity:1;fill-rule:nonzero;stroke:none;opacity:0.72"
       id="path6943"
       inkscape:connector-curvature="0" />
    <path
       d="m 103.26541,1014.1505 -1.78,0 0,-0.01 1.775,0 0,-13.3775 0.005,0 0,13.3812"
       style="fill:#788a8e;fill-opacity:1;fill-rule:nonzero;stroke:none;opacity:0.72"
       id="path6945"
       inkscape:connector-curvature="0" />
    <path
       d="m 38.135403,1018.368 46.76275,0 0,0 -46.76275,0 0,0 z"
       style="fill:#b3b0b2;fill-opacity:1;fill-rule:nonzero;stroke:none;opacity:0.72"
       id="path6947"
       inkscape:connector-curvature="0" />
  </g>
</svg>
