<?xml version="1.0" encoding="UTF-8" standalone="no"?>
<!-- Created with Inkscape (http://www.inkscape.org/) -->

<svg
   xmlns:dc="http://purl.org/dc/elements/1.1/"
   xmlns:cc="http://creativecommons.org/ns#"
   xmlns:rdf="http://www.w3.org/1999/02/22-rdf-syntax-ns#"
   xmlns:svg="http://www.w3.org/2000/svg"
   xmlns="http://www.w3.org/2000/svg"
   xmlns:sodipodi="http://sodipodi.sourceforge.net/DTD/sodipodi-0.dtd"
   xmlns:inkscape="http://www.inkscape.org/namespaces/inkscape"
   width="514.68201"
   height="514.68201"
   viewBox="0 0 514.68201 514.68201"
   id="svg9245"
   version="1.1"
   inkscape:version="0.91 r13725"
   sodipodi:docname="sup.svg">
  <defs
     id="defs9247" />
  <sodipodi:namedview
     id="base"
     pagecolor="#ffffff"
     bordercolor="#666666"
     borderopacity="1.0"
     inkscape:pageopacity="0.0"
     inkscape:pageshadow="2"
     inkscape:zoom="0.7"
     inkscape:cx="468.72935"
     inkscape:cy="358.37559"
     inkscape:document-units="px"
     inkscape:current-layer="g3320"
     showgrid="false"
     units="px"
     inkscape:window-width="1855"
     inkscape:window-height="1056"
     inkscape:window-x="1665"
     inkscape:window-y="24"
     inkscape:window-maximized="1" />
  <metadata
     id="metadata9250">
    <rdf:RDF>
      <cc:Work
         rdf:about="">
        <dc:format>image/svg+xml</dc:format>
        <dc:type
           rdf:resource="http://purl.org/dc/dcmitype/StillImage" />
        <dc:title></dc:title>
      </cc:Work>
    </rdf:RDF>
  </metadata>
  <g
     inkscape:label="Livello 1"
     inkscape:groupmode="layer"
     id="layer1"
     transform="translate(0,-537.68023)">
    <g
       id="g3320"
       transform="matrix(0.33675875,0,0,-0.33675875,-4977.5477,2420.0635)"
       style="opacity:0.804">
      <path
         d="m 16300,4824.97 c 0,-422.07 -342.1,-764.2 -764.2,-764.2 -422,0 -764.1,342.13 -764.1,764.2 0,422.04 342.1,764.16 764.1,764.16 422.1,0 764.2,-342.12 764.2,-764.16"
         style="fill:#ffd42a;fill-opacity:1;fill-rule:nonzero;stroke:none;opacity:0.374"
         id="path3322"
         inkscape:connector-curvature="0" />
    </g>
    <g
       id="g3324"
       transform="matrix(0.3242375,0,0,-0.3242375,-4977.5477,2420.0635)"
       style="opacity:0.523">
      <path
         d="m 16290.3,4898.11 -618.5,0 c -5.4,0 -9.7,4.36 -9.7,9.68 l 0,522.23 c 0,5.32 4.3,9.67 9.7,9.67 l 618.5,0 c 5.3,0 9.7,-4.35 9.7,-9.67 l 0,-522.23 c 0,-5.32 -4.4,-9.68 -9.7,-9.68"
         style="fill:#c7e88e;fill-opacity:1;fill-rule:nonzero;stroke:none"
         id="path3326"
         inkscape:connector-curvature="0" />
    </g>
    <g
       id="g3328"
       transform="matrix(0.33319125,0,0,-0.33319125,-4977.5477,2420.0635)"
       style="opacity:0">
      <path
         d="m 16300,4867.84 c 0,-19.5 -13.8,-35.3 -30.9,-35.3 l -5.6,0 c -17,0 -30.9,15.8 -30.9,35.3 0,19.51 13.9,35.34 30.9,35.34 l 5.6,0 c 17.1,0 30.9,-15.83 30.9,-35.34"
         style="fill:#ffffff;fill-opacity:1;fill-rule:nonzero;stroke:none"
         id="path3330"
         inkscape:connector-curvature="0" />
    </g>
    <g
       id="g3332"
       transform="matrix(0.332705,0,0,-0.332705,-4977.5477,2420.0635)"
       style="opacity:0.523">
      <path
         d="m 15240.8,4671.22 c 0,-5.56 4.5,-10.1 10.1,-10.1 l 1038.9,0 c 5.6,0 10.2,4.54 10.2,10.1 l 0,103.66 c 0,5.56 -4.6,3.34 -10.2,3.34 l -1038.9,0 c -5.6,0 -10.1,-4.54 -10.1,-10.1 l 0,-96.9"
         style="fill:#32435b;fill-opacity:1;fill-rule:nonzero;stroke:none"
         id="path3334"
         inkscape:connector-curvature="0" />
    </g>
    <g
       id="g3336"
       transform="matrix(0.3326275,0,0,-0.32137707,-4977.5477,2364.7422)"
       style="opacity:0.52600002">
      <path
         d="m 16295.4,4923.48 c 4.6,-3.2 3.8,-5.79 -1.8,-5.79 l -394.6,0 c -5.6,0 -10.2,-2.22 -10.2,3.35 l 0,87.67 c 0,5.56 4.6,3.34 10.2,3.34 l 258.5,0 c 5.6,0 14,-2.59 18.6,-5.78 l 119.3,-82.79"
         style="fill:#32435b;fill-opacity:1;fill-rule:nonzero;stroke:none"
         id="path3338"
         inkscape:connector-curvature="0" />
    </g>
    <g
       id="g3340"
       transform="matrix(0.332675,0,0,-0.32275404,-4977.1906,2372.6589)"
       style="opacity:0.99100001">
      <path
         d="m 16300,4781.99 c 0,-5.49 -4.6,-3.35 -10.1,-3.35 l -393.2,0 c -5.6,0 -10.2,-2.14 -10.2,3.35 l 0,136.47 c 0,5.52 4.6,3.34 10.2,3.34 l 396.5,0 c 5.6,0 6.8,-4.51 6.8,-10 l 0,-129.81"
         style="opacity:0.52300002;fill:#32435b;fill-opacity:1;fill-rule:nonzero;stroke:none"
         id="path3342"
         inkscape:connector-curvature="0" />
    </g>
    <g
       id="g3344"
       transform="matrix(0.32992875,0,0,-0.32992875,-4977.5477,2420.0635)"
       style="opacity:0.551">
      <path
         d="m 16029.1,5049.24 c -5.6,0 -10.3,-2.2 -10.3,3.41 l 0,210.72 c 0,5.61 4.6,10.38 10.3,10.61 0,0 109,4.58 147.5,-7.23 19.1,-5.88 106.5,-43.69 123.4,-217.51 l -270.9,0"
         style="fill:#32435b;fill-opacity:1;fill-rule:nonzero;stroke:none;opacity:0.847"
         id="path3346"
         inkscape:connector-curvature="0" />
    </g>
    <g
       id="g3348"
       transform="matrix(0.3293775,0,0,-0.3293775,-4977.5477,2420.0635)"
       style="opacity:1">
      <path
         d="m 16069.6,5081.51 0,177.04 c 0,0 96.2,1.86 127.9,-6.83 18.9,-5.17 83.2,-48.13 102.5,-170.21 l -230.4,0"
         style="fill:#ffffff;fill-opacity:1;fill-rule:nonzero;stroke:none"
         id="path3350"
         inkscape:connector-curvature="0" />
    </g>
    <g
       id="g3352"
       transform="matrix(0.31833625,0,0,-0.31833625,-4977.5477,2420.0635)"
       style="opacity:0.912;fill:#6c5d53">
      <path
         d="m 16300,4846.84 c 0,-68.25 -55.8,-123.62 -124.7,-123.62 -68.8,0 -124.7,55.37 -124.7,123.62 0,68.24 55.9,123.57 124.7,123.57 68.9,0 124.7,-55.33 124.7,-123.57"
         style="fill:#6c5d53;fill-opacity:1;fill-rule:nonzero;stroke:none"
         id="path3354"
         inkscape:connector-curvature="0" />
    </g>
    <g
       id="g3356"
       transform="matrix(0.31729,0,0,-0.31729,-4977.5477,2420.0635)"
       style="fill:#d4c36b;fill-opacity:0.73725492">
      <path
         d="m 16300,4862.83 c 0,-39.05 -32,-70.68 -71.3,-70.68 -39.4,0 -71.3,31.63 -71.3,70.68 0,39.04 31.9,70.67 71.3,70.67 39.3,0 71.3,-31.63 71.3,-70.67"
         style="fill:#d4c36b;fill-opacity:0.73725492;fill-rule:nonzero;stroke:none"
         id="path3358"
         inkscape:connector-curvature="0" />
    </g>
    <g
       id="g3360"
       transform="matrix(0.33087625,0,0,-0.33087625,-4977.5477,2420.0635)"
       style="opacity:0.847;fill:#6c5d53">
      <path
         d="m 16300,4663.15 c 0,-65.66 -53.7,-118.93 -119.9,-118.93 -66.3,0 -120,53.27 -120,118.93 0,65.65 53.7,118.88 120,118.88 66.2,0 119.9,-53.23 119.9,-118.88"
         style="fill:#6c5d53;fill-opacity:1;fill-rule:nonzero;stroke:none"
         id="path3362"
         inkscape:connector-curvature="0" />
    </g>
    <g
       id="g3364"
       transform="matrix(0.32982875,0,0,-0.32982875,-4977.5477,2420.0635)"
       style="fill:#d4c36b;fill-opacity:0.73725492">
      <path
         d="m 16300,4677.96 c 0,-37.56 -30.7,-68 -68.6,-68 -37.9,0 -68.6,30.44 -68.6,68 0,37.55 30.7,67.98 68.6,67.98 37.9,0 68.6,-30.43 68.6,-67.98"
         style="fill:#d4c36b;fill-opacity:0.73725492;fill-rule:nonzero;stroke:none"
         id="path3366"
         inkscape:connector-curvature="0" />
    </g>
  </g>
</svg>
