<?xml version="1.0" encoding="utf-8"?>
<!-- Generator: Adobe Illustrator 23.0.0, SVG Export Plug-In . SVG Version: 6.00 Build 0)  -->
<svg version="1.1" id="Livello_1" xmlns="http://www.w3.org/2000/svg" xmlns:xlink="http://www.w3.org/1999/xlink" x="0px" y="0px"
	 viewBox="0 0 160 60.1" style="enable-background:new 0 0 160 60.1;" xml:space="preserve">
<style type="text/css">
	.st0{enable-background:new    ;}
	.st1{fill:#D8273A;}
	.st2{fill:#591223;}
	.st3{fill:#9A1C30;}
</style>
<g>
	<g class="st0">
		<path class="st1" d="M53,26.3c-0.5-3.6,2-5.8,6.4-5.8c2.3,0,4,0.9,4.6,1.4l0.4,3.3c-0.9-1-2.9-1.9-4.8-1.9c-1.9,0-3.5,0.5-3.3,2.3
			l0.6,4.8C54.8,29.7,53.3,28.5,53,26.3z M54.4,37.8L53.9,34c0.6,0.9,2.7,2.3,5.1,2.6l0.2,2.9C56.5,39.2,54.9,38.2,54.4,37.8z
			 M63.7,34.1c-0.1-0.9-0.7-1.6-1.7-2l-0.3-3.3c2.7,0.8,4.6,1.9,5.1,4.8c0.4,2.6-0.6,4.4-2.5,5.3L63.7,34.1z"/>
		<path class="st1" d="M69,30.2c-0.8-5.9,3.1-9.7,8.1-9.7c0.8,0,1.7,0.1,2.4,0.3l0.3,3c-0.7-0.2-1.6-0.4-2.6-0.4
			c-3.1,0-5.6,2.2-5,6.5c0.6,4.2,4.1,6.8,7.3,6.8c0.8,0,1.6-0.1,2.3-0.3l0.2,2.9c-0.6,0.2-1.4,0.3-2.4,0.3
			C74.7,39.6,69.8,36.2,69,30.2z"/>
		<path class="st1" d="M85.5,39l-1.4-10.4c0.3,0.1,2.3,0.3,4.3,0.3c2.6,0,4-0.7,3.7-2.5c-0.3-2.2-2.2-3-4.8-3c-1.4,0-3.5,0.3-4,0.3
			L83,20.9c0.4,0,2.4-0.3,4.1-0.3c4.3,0,7.3,1.5,7.8,5.5c0.5,3.7-2.4,5.6-6.2,5.6c-0.5,0-1,0-1.4-0.1l1.1,7.3c0,0.2,0.1,0.4,0.2,0.4
			l-3.2,0.1C85.6,39.2,85.5,39.2,85.5,39z M92.5,35.5l2.7-0.8l2.9,4.1c0.1,0.2,0.2,0.4,0.3,0.4l-3.4,0L92.5,35.5z"/>
		<path class="st1" d="M97.4,21.3c-0.1-0.1-0.3-0.3-0.4-0.4l3.8,0l5.5,7.8h-3.5L97.4,21.3z M106.2,39l-0.7-5h3.1l0.7,4.8
			c0,0.2,0.1,0.4,0.2,0.4l-3.2,0.1C106.3,39.2,106.3,39.2,106.2,39z M109.6,20.9l3.8,0c-0.1,0-0.2,0.2-0.3,0.3l-3.3,7.5h-3.4
			L109.6,20.9z"/>
		<path class="st1" d="M118.3,39l-1-7.6c0.6,0.1,1.6,0.1,2.9,0.1c3.5,0,5.6-0.8,5.2-3.9c-0.4-2.8-3-4.1-5.2-4.1
			c-1.5,0-3.2,0.1-4.1,0.2l-0.2-2.8c0.3-0.1,2.4-0.3,4-0.3c3.9,0,7.9,2.2,8.5,6.7c0.6,4.6-2.7,7.1-6.3,7.1c-0.4,0-1,0-1.4,0l0.7,4.5
			c0,0.2,0.1,0.4,0.2,0.4l-3.2,0.1C118.4,39.2,118.3,39.2,118.3,39z"/>
		<path class="st1" d="M129.7,20.7c0,0,0.2,0.1,0.4,0.1h12.3c0.1,0,0.3,0.1,0.3,0l0.4,3c-0.1-0.1-0.2-0.2-0.4-0.2h-12.3
			c-0.2,0-0.3,0-0.3,0L129.7,20.7z M137,39l-1.4-10.4h3.1l1.4,10.2c0,0.2,0.1,0.3,0.1,0.4l-3.2,0.1C137.1,39.2,137,39.2,137,39z"/>
		<path class="st1" d="M149.3,24.5l-1.3,6.8l-3,0l2.2-10.1c0-0.2-0.1-0.3-0.1-0.4l3.6-0.1c0,0,0.1,0.1,0.2,0.3l8.6,17.7
			c0.1,0.2,0.2,0.3,0.3,0.4l-3.4,0L149.3,24.5z"/>
	</g>
	<g id="g3" transform="matrix(0.11919181,0,0,0.1206487,174.25537,372.20578)">
		
			<image style="overflow:visible;opacity:0.25;enable-background:new    ;" width="4346" height="4325" id="image5" xlink:href="63EF7E3E.png"  transform="matrix(8.333135e-02 0 0 8.333127e-02 -1458.9819 -3016.1643)">
		</image>
		<g id="g7">
			<g id="g9">
				<polygon id="polygon11" class="st2" points="-1453.9,-2739.8 -1282.3,-2815.8 -1234,-2717.2 -1278.4,-2661 				"/>
				<polygon id="polygon13" class="st3" points="-1097.8,-2837.6 -1152.9,-2725.1 -1275.4,-2756.1 -1455.4,-2837.6 -1313.1,-2958.6 
					-1223.2,-2892.8 				"/>
				<polygon id="polygon15" class="st2" points="-1455.4,-2838 -1455.4,-2934.2 -1377.5,-2954.1 -1349.6,-2886.8 				"/>
				<polygon id="polygon17" class="st1" points="-1097.8,-2934.5 -1275.6,-2853.4 -1453.9,-2934.2 -1272.5,-3014.8 				"/>
				<polygon id="polygon19" class="st1" points="-1277.6,-2756.7 -1277.6,-2660.7 -1097.3,-2740.3 -1097.3,-2838 				"/>
			</g>
		</g>
	</g>
</g>
</svg>
