<?xml version="1.0" encoding="utf-8"?>
<!-- Generator: Adobe Illustrator 23.0.0, SVG Export Plug-In . SVG Version: 6.00 Build 0)  -->
<svg version="1.1" id="Livello_1" xmlns="http://www.w3.org/2000/svg" xmlns:xlink="http://www.w3.org/1999/xlink" x="0px" y="0px"
	 viewBox="0 0 62 28" style="enable-background:new 0 0 62 28;" xml:space="preserve">
<style type="text/css">
	.st0{enable-background:new    ;}
	.st1{fill:#D8273A;}
	.st2{fill:#591223;}
	.st3{fill:#9A1C30;}
</style>
<g>
	<g class="st0">
		<path class="st1" d="M20.6,12.6c-0.2-1.4,0.8-2.2,2.4-2.2c0.9,0,1.5,0.3,1.7,0.5l0.1,1.3c-0.3-0.4-1.1-0.7-1.9-0.7
			c-0.7,0-1.4,0.2-1.3,0.9l0.2,1.8C21.3,13.9,20.8,13.4,20.6,12.6z M21.2,17L21,15.5c0.2,0.4,1,0.9,1.9,1l0.1,1.1
			C22,17.5,21.4,17.1,21.2,17z M24.8,15.5c-0.1-0.4-0.3-0.6-0.6-0.8L24,13.5c1,0.3,1.8,0.7,1.9,1.9c0.1,1-0.2,1.7-1,2L24.8,15.5z"/>
		<path class="st1" d="M26.8,14.1c-0.3-2.3,1.2-3.7,3.1-3.7c0.3,0,0.6,0,0.9,0.1l0.1,1.1c-0.3-0.1-0.6-0.2-1-0.2
			c-1.2,0-2.2,0.9-1.9,2.5c0.2,1.6,1.6,2.6,2.8,2.6c0.3,0,0.6,0,0.9-0.1l0.1,1.1c-0.2,0.1-0.6,0.1-0.9,0.1
			C29,17.6,27.1,16.4,26.8,14.1z"/>
		<path class="st1" d="M33.1,17.4l-0.5-4c0.1,0,0.9,0.1,1.6,0.1c1,0,1.5-0.3,1.4-1c-0.1-0.8-0.9-1.2-1.8-1.2c-0.6,0-1.4,0.1-1.5,0.1
			l-0.1-1.1c0.1,0,0.9-0.1,1.6-0.1c1.6,0,2.8,0.6,3,2.1c0.2,1.4-0.9,2.1-2.4,2.1c-0.2,0-0.4,0-0.5,0l0.4,2.8c0,0.1,0.1,0.1,0.1,0.1
			l-1.2,0C33.1,17.5,33.1,17.5,33.1,17.4z M35.8,16.1l1-0.3l1.1,1.6c0,0.1,0.1,0.1,0.1,0.1l-1.3,0L35.8,16.1z"/>
		<path class="st1" d="M37.7,10.6c0-0.1-0.1-0.1-0.2-0.1l1.5,0l2.1,3h-1.4L37.7,10.6z M41.1,17.4l-0.3-1.9H42l0.3,1.8
			c0,0.1,0.1,0.1,0.1,0.1l-1.2,0C41.1,17.5,41.1,17.5,41.1,17.4z M42.3,10.5l1.5,0c0,0-0.1,0.1-0.1,0.1l-1.3,2.9h-1.3L42.3,10.5z"/>
		<path class="st1" d="M45.7,17.4l-0.4-2.9c0.2,0,0.6,0.1,1.1,0.1c1.3,0,2.1-0.3,2-1.5c-0.1-1.1-1.1-1.6-2-1.6c-0.6,0-1.2,0-1.6,0.1
			l-0.1-1.1c0.1,0,0.9-0.1,1.5-0.1c1.5,0,3,0.8,3.3,2.6c0.2,1.7-1,2.7-2.4,2.7c-0.1,0-0.4,0-0.6,0l0.3,1.7c0,0.1,0.1,0.1,0.1,0.1
			l-1.2,0C45.7,17.5,45.7,17.5,45.7,17.4z"/>
		<path class="st1" d="M50,10.4c0,0,0.1,0,0.1,0h4.7c0.1,0,0.1,0,0.1,0l0.1,1.2c0,0-0.1-0.1-0.1-0.1h-4.7c-0.1,0-0.1,0-0.1,0
			L50,10.4z M52.9,17.4l-0.6-4h1.2l0.5,3.9c0,0.1,0,0.1,0.1,0.1l-1.2,0C52.9,17.5,52.9,17.5,52.9,17.4z"/>
		<path class="st1" d="M57.6,11.9l-0.5,2.6l-1.1,0l0.8-3.9c0-0.1,0-0.1-0.1-0.1l1.4,0c0,0,0,0.1,0.1,0.1l3.3,6.8
			c0,0.1,0.1,0.1,0.1,0.1l-1.3,0L57.6,11.9z"/>
	</g>
	<g id="g3" transform="matrix(0.11919181,0,0,0.1206487,174.25537,372.20578)">
		
			<image style="overflow:visible;opacity:0.25;enable-background:new    ;" width="4346" height="4325" id="image5" xlink:href="72029A06.png"  transform="matrix(3.195831e-02 0 0 3.195828e-02 -1458.1465 -3038.1006)">
		</image>
		<g id="g7">
			<g id="g9">
				<polygon id="polygon11" class="st2" points="-1456.2,-2932.1 -1390.4,-2961.3 -1371.9,-2923.5 -1388.9,-2901.9 				"/>
				<polygon id="polygon13" class="st3" points="-1319.6,-2969.6 -1340.8,-2926.5 -1387.7,-2938.4 -1456.8,-2969.6 -1402.2,-3016 
					-1367.7,-2990.8 				"/>
				<polygon id="polygon15" class="st2" points="-1456.8,-2969.8 -1456.8,-3006.7 -1426.9,-3014.3 -1416.2,-2988.5 				"/>
				<polygon id="polygon17" class="st1" points="-1319.6,-3006.8 -1387.8,-2975.7 -1456.2,-3006.7 -1386.6,-3037.6 				"/>
				<polygon id="polygon19" class="st1" points="-1388.6,-2938.6 -1388.6,-2901.8 -1319.4,-2932.3 -1319.4,-2969.8 				"/>
			</g>
		</g>
	</g>
</g>
</svg>
